<svg xmlns="http://www.w3.org/2000/svg" xmlns:xlink="http://www.w3.org/1999/xlink" version="1.1" width="256" height="256" viewBox="0 0 256 256" xml:space="preserve">

<defs>
</defs>
<g style="stroke: none; stroke-width: 0; stroke-dasharray: none; stroke-linecap: butt; stroke-linejoin: miter; stroke-miterlimit: 10; fill: none; fill-rule: nonzero; opacity: 1;" transform="translate(1.4065934065934016 1.4065934065934016) scale(2.81 2.81)" >
	<path d="M 28.4 89 l 16.868 -11.069 L 33.333 59.743 L 6.328 73.877 v 8.555 c 0 3.627 2.94 6.567 6.567 6.567 H 28.4 z" style="stroke: none; stroke-width: 1; stroke-dasharray: none; stroke-linecap: butt; stroke-linejoin: miter; stroke-miterlimit: 10; fill: rgb(119,157,188); fill-rule: nonzero; opacity: 1;" transform=" matrix(1 0 0 1 0 0) " stroke-linecap="round" />
	<rect x="38.74" y="58.05" rx="0" ry="0" width="6.81" height="17.83" style="stroke: none; stroke-width: 1; stroke-dasharray: none; stroke-linecap: butt; stroke-linejoin: miter; stroke-miterlimit: 10; fill: rgb(240,240,252); fill-rule: nonzero; opacity: 1;" transform=" matrix(0.8361 -0.5486 0.5486 0.8361 -29.832 34.1025) "/>
	<path d="M 40.313 70.38 L 23.904 80.479 L 6.328 81.088 v 1.345 c 0 3.627 2.94 6.567 6.567 6.567 H 28.4 l 16.868 -11.069 L 40.313 70.38 z" style="stroke: none; stroke-width: 1; stroke-dasharray: none; stroke-linecap: butt; stroke-linejoin: miter; stroke-miterlimit: 10; fill: rgb(105,137,163); fill-rule: nonzero; opacity: 1;" transform=" matrix(1 0 0 1 0 0) " stroke-linecap="round" />
	<polygon points="46.22,66.97 40.31,70.38 44.19,76.29 49.89,72.56 " style="stroke: none; stroke-width: 1; stroke-dasharray: none; stroke-linecap: butt; stroke-linejoin: miter; stroke-miterlimit: 10; fill: rgb(223,223,232); fill-rule: nonzero; opacity: 1;" transform="  matrix(1 0 0 1 0 0) "/>
	<path d="M 44.931 44.03 l 8.744 13.325 c 1.15 1.752 3.503 2.241 5.255 1.091 l 0 0 c 1.752 -1.15 2.241 -3.503 1.091 -5.255 l -5.674 -8.646 l -0.931 -6.083 L 44.931 44.03 z" style="stroke: none; stroke-width: 1; stroke-dasharray: none; stroke-linecap: butt; stroke-linejoin: miter; stroke-miterlimit: 10; fill: rgb(240,240,252); fill-rule: nonzero; opacity: 1;" transform=" matrix(1 0 0 1 0 0) " stroke-linecap="round" />
	<path d="M 48.038 48.764 c 3.328 0.111 5.532 -1.168 6.346 -4.165 l -0.037 -0.056 l -0.931 -6.083 l -8.486 5.569 L 48.038 48.764 z" style="stroke: none; stroke-width: 1; stroke-dasharray: none; stroke-linecap: butt; stroke-linejoin: miter; stroke-miterlimit: 10; fill: rgb(205,205,228); fill-rule: nonzero; opacity: 1;" transform=" matrix(1 0 0 1 0 0) " stroke-linecap="round" />
	<path d="M 56.857 60.069 c -0.327 0 -0.656 -0.033 -0.983 -0.102 c -1.255 -0.261 -2.332 -0.993 -3.035 -2.064 l -8.744 -13.325 c -0.303 -0.462 -0.174 -1.082 0.287 -1.385 l 8.486 -5.569 c 0.285 -0.188 0.646 -0.215 0.956 -0.078 c 0.311 0.139 0.53 0.426 0.581 0.762 l 0.897 5.868 l 5.555 8.464 c 0.703 1.07 0.947 2.351 0.687 3.605 c -0.261 1.254 -0.993 2.331 -2.064 3.034 C 58.688 59.801 57.782 60.069 56.857 60.069 z M 46.315 44.317 l 8.195 12.488 c 0.41 0.625 1.038 1.052 1.77 1.204 c 0.729 0.149 1.478 0.009 2.102 -0.4 c 0.625 -0.41 1.052 -1.038 1.204 -1.77 c 0.151 -0.73 0.01 -1.477 -0.4 -2.101 l -5.674 -8.646 c -0.079 -0.12 -0.131 -0.256 -0.152 -0.397 l -0.695 -4.544 L 46.315 44.317 z" style="stroke: none; stroke-width: 1; stroke-dasharray: none; stroke-linecap: butt; stroke-linejoin: miter; stroke-miterlimit: 10; fill: rgb(0,0,0); fill-rule: nonzero; opacity: 1;" transform=" matrix(1 0 0 1 0 0) " stroke-linecap="round" />
	<path d="M 55.585 4.636 c -0.016 0.046 -0.033 0.092 -0.049 0.139 c -2.301 6.548 -6.819 12.088 -12.622 15.896 l -8.5 5.578 c -4.959 3.254 -6.725 9.865 -3.708 14.972 c 3.222 5.452 10.301 7.053 15.535 3.618 l 8.76 -5.748 c 5.803 -3.808 12.683 -5.748 19.606 -5.253 c 0.049 0.004 0.098 0.007 0.147 0.01 c 2.521 0.168 4.133 -2.651 2.747 -4.764 L 61.048 4.012 C 59.662 1.9 56.434 2.257 55.585 4.636 z" style="stroke: none; stroke-width: 1; stroke-dasharray: none; stroke-linecap: butt; stroke-linejoin: miter; stroke-miterlimit: 10; fill: rgb(240,240,252); fill-rule: nonzero; opacity: 1;" transform=" matrix(1 0 0 1 0 0) " stroke-linecap="round" />
	<path d="M 43.367 20.361 c -0.151 0.103 -0.3 0.21 -0.453 0.31 l -8.5 5.578 c -4.959 3.254 -6.725 9.865 -3.708 14.972 c 3.222 5.452 10.301 7.053 15.535 3.618 l 8.76 -5.748 c 0.153 -0.101 0.31 -0.194 0.465 -0.292 L 43.367 20.361 z" style="stroke: none; stroke-width: 1; stroke-dasharray: none; stroke-linecap: butt; stroke-linejoin: miter; stroke-miterlimit: 10; fill: rgb(247,82,75); fill-rule: nonzero; opacity: 1;" transform=" matrix(1 0 0 1 0 0) " stroke-linecap="round" />
	<path d="M 55.585 4.636 c -0.016 0.046 -0.033 0.092 -0.049 0.139 c -0.279 0.794 -0.592 1.572 -0.934 2.334 l 17.492 26.656 c 0.836 -0.011 1.674 0.012 2.513 0.072 c 0.049 0.003 0.098 0.007 0.147 0.01 c 2.521 0.168 4.133 -2.651 2.747 -4.764 L 61.048 4.012 C 59.662 1.9 56.434 2.257 55.585 4.636 z" style="stroke: none; stroke-width: 1; stroke-dasharray: none; stroke-linecap: butt; stroke-linejoin: miter; stroke-miterlimit: 10; fill: rgb(247,82,75); fill-rule: nonzero; opacity: 1;" transform=" matrix(1 0 0 1 0 0) " stroke-linecap="round" />
	<path d="M 43.635 39.212 c -4.331 2.842 -9.753 2.674 -13.84 0.029 c 0.231 0.677 0.534 1.34 0.911 1.98 c 3.222 5.452 10.301 7.053 15.535 3.618 l 8.76 -5.748 c 0.153 -0.101 0.31 -0.194 0.465 -0.292 l -3.371 -5.138 L 43.635 39.212 z" style="stroke: none; stroke-width: 1; stroke-dasharray: none; stroke-linecap: butt; stroke-linejoin: miter; stroke-miterlimit: 10; fill: rgb(225,65,58); fill-rule: nonzero; opacity: 1;" transform=" matrix(1 0 0 1 0 0) " stroke-linecap="round" />
	<path d="M 74.824 26.482 c -0.482 -0.014 -0.963 -0.017 -1.443 -0.011 c -1.922 0.024 -3.832 0.213 -5.715 0.548 l 4.428 6.747 c 0.836 -0.011 1.674 0.012 2.513 0.072 c 0.049 0.003 0.098 0.007 0.147 0.01 c 2.521 0.168 4.133 -2.651 2.747 -4.764 l -1.675 -2.553 C 75.492 26.513 75.158 26.492 74.824 26.482 z" style="stroke: none; stroke-width: 1; stroke-dasharray: none; stroke-linecap: butt; stroke-linejoin: miter; stroke-miterlimit: 10; fill: rgb(225,65,58); fill-rule: nonzero; opacity: 1;" transform=" matrix(1 0 0 1 0 0) " stroke-linecap="round" />
	<path d="M 67.667 27.019 c -4.948 0.878 -9.702 2.79 -13.952 5.579 l -1.619 1.063 l 3.371 5.138 c 4.994 -3.161 10.748 -4.958 16.627 -5.033 L 67.667 27.019 z" style="stroke: none; stroke-width: 1; stroke-dasharray: none; stroke-linecap: butt; stroke-linejoin: miter; stroke-miterlimit: 10; fill: rgb(205,205,228); fill-rule: nonzero; opacity: 1;" transform=" matrix(1 0 0 1 0 0) " stroke-linecap="round" />
	<path d="M 40.231 47.65 c -0.915 0 -1.836 -0.104 -2.753 -0.317 c -3.23 -0.75 -5.94 -2.74 -7.632 -5.604 c -3.266 -5.527 -1.5 -12.694 4.02 -16.317 l 8.5 -5.578 c 5.715 -3.75 10.057 -9.216 12.228 -15.391 l 0.051 -0.143 h -0.001 c 0.519 -1.452 1.795 -2.467 3.333 -2.651 c 1.553 -0.189 3.052 0.509 3.908 1.814 l 16.453 25.072 c 0.856 1.305 0.898 2.956 0.109 4.308 c -0.781 1.337 -2.224 2.105 -3.759 2.002 l -0.15 -0.01 c -6.525 -0.467 -13.272 1.34 -18.986 5.091 l -8.76 5.748 C 44.804 46.979 42.542 47.65 40.231 47.65 z M 58.479 3.619 c -0.087 0 -0.176 0.005 -0.266 0.016 c -0.791 0.095 -1.421 0.595 -1.686 1.337 c -0.001 0.001 -0.002 0.003 -0.002 0.004 l -0.042 0.118 c -2.319 6.599 -6.941 12.423 -13.021 16.412 l -8.5 5.578 c -4.626 3.036 -6.118 9.022 -3.396 13.627 c 1.411 2.388 3.671 4.047 6.363 4.673 c 2.694 0.625 5.451 0.135 7.763 -1.382 l 8.76 -5.748 c 6.081 -3.99 13.271 -5.911 20.226 -5.414 l 0.135 0.009 c 0.818 0.055 1.505 -0.327 1.905 -1.015 c 0.41 -0.703 0.391 -1.525 -0.054 -2.202 L 60.212 4.561 C 59.817 3.959 59.183 3.619 58.479 3.619 z M 55.585 4.637 h 0.01 H 55.585 z" style="stroke: none; stroke-width: 1; stroke-dasharray: none; stroke-linecap: butt; stroke-linejoin: miter; stroke-miterlimit: 10; fill: rgb(0,0,0); fill-rule: nonzero; opacity: 1;" transform=" matrix(1 0 0 1 0 0) " stroke-linecap="round" />
	<path d="M 40.231 47.65 c -0.915 0 -1.836 -0.104 -2.753 -0.317 c -3.23 -0.75 -5.94 -2.74 -7.632 -5.604 c -3.266 -5.527 -1.5 -12.694 4.02 -16.317 l 8.94 -5.879 c 0.223 -0.15 0.496 -0.205 0.757 -0.153 c 0.263 0.052 0.493 0.208 0.64 0.432 L 56.303 38.25 c 0.147 0.225 0.198 0.499 0.142 0.76 c -0.057 0.262 -0.217 0.491 -0.443 0.634 l -0.45 0.283 l -8.76 5.748 C 44.804 46.979 42.542 47.65 40.231 47.65 z M 43.086 21.754 l -8.123 5.33 c -4.626 3.036 -6.118 9.022 -3.396 13.627 c 1.411 2.388 3.671 4.047 6.363 4.673 c 2.694 0.625 5.451 0.135 7.763 -1.382 l 8.383 -5.501 L 43.086 21.754 z" style="stroke: none; stroke-width: 1; stroke-dasharray: none; stroke-linecap: butt; stroke-linejoin: miter; stroke-miterlimit: 10; fill: rgb(0,0,0); fill-rule: nonzero; opacity: 1;" transform=" matrix(1 0 0 1 0 0) " stroke-linecap="round" />
	<path d="M 74.961 34.855 c -0.091 0 -0.182 -0.003 -0.273 -0.009 l -0.15 -0.01 c -0.795 -0.057 -1.612 -0.081 -2.431 -0.07 c -0.333 -0.014 -0.662 -0.167 -0.849 -0.451 L 53.766 7.659 C 53.578 7.373 53.55 7.012 53.689 6.7 c 0.334 -0.743 0.638 -1.502 0.903 -2.256 l 0.051 -0.143 h -0.001 c 0.519 -1.452 1.795 -2.467 3.333 -2.651 c 1.555 -0.188 3.053 0.509 3.908 1.814 l 16.453 25.072 c 0.856 1.305 0.898 2.956 0.109 4.308 C 77.712 34.102 76.395 34.855 74.961 34.855 z M 72.632 32.764 c 0.689 0.003 1.376 0.029 2.047 0.077 l 0.135 0.009 c 0.818 0.055 1.505 -0.327 1.905 -1.015 c 0.41 -0.703 0.391 -1.525 -0.054 -2.202 L 60.212 4.561 c -0.443 -0.676 -1.185 -1.025 -1.999 -0.926 c -0.791 0.095 -1.421 0.595 -1.686 1.337 c -0.001 0.001 -0.002 0.003 -0.002 0.004 l -0.042 0.118 c -0.228 0.646 -0.478 1.288 -0.748 1.92 L 72.632 32.764 z M 55.585 4.637 h 0.01 H 55.585 z" style="stroke: none; stroke-width: 1; stroke-dasharray: none; stroke-linecap: butt; stroke-linejoin: miter; stroke-miterlimit: 10; fill: rgb(0,0,0); fill-rule: nonzero; opacity: 1;" transform=" matrix(1 0 0 1 0 0) " stroke-linecap="round" />
	<path d="M 73.616 13.964 c -0.326 0 -0.645 -0.159 -0.837 -0.451 c -0.303 -0.462 -0.175 -1.082 0.287 -1.385 l 5.131 -3.367 c 0.462 -0.304 1.081 -0.175 1.385 0.287 c 0.303 0.462 0.175 1.082 -0.287 1.385 L 74.164 13.8 C 73.995 13.912 73.805 13.964 73.616 13.964 z" style="stroke: none; stroke-width: 1; stroke-dasharray: none; stroke-linecap: butt; stroke-linejoin: miter; stroke-miterlimit: 10; fill: rgb(0,0,0); fill-rule: nonzero; opacity: 1;" transform=" matrix(1 0 0 1 0 0) " stroke-linecap="round" />
	<path d="M 68.668 6.427 c -0.174 0 -0.351 -0.045 -0.511 -0.141 c -0.475 -0.283 -0.63 -0.896 -0.348 -1.371 l 2.638 -4.427 c 0.283 -0.474 0.896 -0.63 1.371 -0.347 c 0.475 0.283 0.63 0.896 0.348 1.371 l -2.638 4.427 C 69.341 6.253 69.009 6.427 68.668 6.427 z" style="stroke: none; stroke-width: 1; stroke-dasharray: none; stroke-linecap: butt; stroke-linejoin: miter; stroke-miterlimit: 10; fill: rgb(0,0,0); fill-rule: nonzero; opacity: 1;" transform=" matrix(1 0 0 1 0 0) " stroke-linecap="round" />
	<path d="M 78.561 21.502 c -0.496 0 -0.926 -0.368 -0.991 -0.872 c -0.07 -0.548 0.316 -1.049 0.864 -1.12 l 5.111 -0.659 c 0.566 -0.073 1.05 0.317 1.12 0.864 c 0.07 0.548 -0.316 1.049 -0.864 1.12 l -5.111 0.659 C 78.646 21.5 78.603 21.502 78.561 21.502 z" style="stroke: none; stroke-width: 1; stroke-dasharray: none; stroke-linecap: butt; stroke-linejoin: miter; stroke-miterlimit: 10; fill: rgb(0,0,0); fill-rule: nonzero; opacity: 1;" transform=" matrix(1 0 0 1 0 0) " stroke-linecap="round" />
	<path d="M 40.807 58.72 l 8.453 12.882 l 1.984 -1.302 l 0 0.001 c 2.326 0.296 4.764 -0.199 6.866 -1.579 l 2.897 -1.901 l 5.264 -3.455 c 1.118 -0.733 1.432 -2.248 0.699 -3.365 l -0.129 -0.197 c -0.733 -1.118 -2.248 -1.432 -3.365 -0.699 l 1.551 -1.018 c 1.118 -0.733 1.432 -2.248 0.699 -3.365 l -0.129 -0.197 c -0.733 -1.118 -2.248 -1.432 -3.365 -0.699 l 1.442 -0.946 c 1.118 -0.733 1.432 -2.248 0.699 -3.365 l -0.129 -0.197 c -0.733 -1.118 -2.248 -1.432 -3.365 -0.699 l 0.116 -0.076 c 1.118 -0.733 1.432 -2.248 0.699 -3.365 l -0.129 -0.197 c -0.733 -1.118 -2.248 -1.432 -3.365 -0.699 l -7.202 4.74 c -1.741 0.93 -2.798 -0.07 -4.058 -1.977 c -0.74 0.568 -1.321 1.36 -1.628 2.318 l -2.513 7.846 v 0 l -2.082 1.366" style="stroke: none; stroke-width: 1; stroke-dasharray: none; stroke-linecap: butt; stroke-linejoin: miter; stroke-miterlimit: 10; fill: rgb(251,206,157); fill-rule: nonzero; opacity: 1;" transform=" matrix(1 0 0 1 0 0) " stroke-linecap="round" />
	<path d="M 65.557 54.63 c -0.048 0.036 -0.088 0.079 -0.138 0.112 l -0.131 0.086 c 0.109 -0.072 0.225 -0.123 0.34 -0.177 C 65.604 54.645 65.581 54.636 65.557 54.63 z" style="stroke: none; stroke-width: 1; stroke-dasharray: none; stroke-linecap: butt; stroke-linejoin: miter; stroke-miterlimit: 10; fill: rgb(232,187,146); fill-rule: nonzero; opacity: 1;" transform=" matrix(1 0 0 1 0 0) " stroke-linecap="round" />
	<path d="M 63.989 51.517 c 0.24 -0.158 0.492 -0.273 0.748 -0.37 c 0.005 -0.043 0.011 -0.087 0.014 -0.13 L 63.989 51.517 z" style="stroke: none; stroke-width: 1; stroke-dasharray: none; stroke-linecap: butt; stroke-linejoin: miter; stroke-miterlimit: 10; fill: rgb(232,187,146); fill-rule: nonzero; opacity: 1;" transform=" matrix(1 0 0 1 0 0) " stroke-linecap="round" />
	<path d="M 66.84 59.804 c -0.733 -1.118 -2.248 -1.432 -3.365 -0.698 l 1.551 -1.018 c 0.219 -0.144 0.397 -0.324 0.553 -0.518 l -5.511 3.616 l -3.949 2.591 c -2.866 1.881 -6.088 2.71 -9.092 2.56 l 0 -0.001 l -0.854 0.56 l 3.088 4.705 l 1.984 -1.302 l 0 0.001 c 2.326 0.296 4.764 -0.199 6.866 -1.579 l 2.897 -1.901 l 5.264 -3.455 c 1.118 -0.733 1.432 -2.248 0.699 -3.365 L 66.84 59.804 z" style="stroke: none; stroke-width: 1; stroke-dasharray: none; stroke-linecap: butt; stroke-linejoin: miter; stroke-miterlimit: 10; fill: rgb(232,187,146); fill-rule: nonzero; opacity: 1;" transform=" matrix(1 0 0 1 0 0) " stroke-linecap="round" />
	<path d="M 49.262 72.602 c -0.326 0 -0.645 -0.159 -0.837 -0.451 l -8.454 -12.882 c -0.016 -0.024 -0.031 -0.049 -0.044 -0.074 c -0.018 -0.022 -0.035 -0.045 -0.05 -0.069 c -0.303 -0.462 -0.174 -1.082 0.287 -1.385 l 1.786 -1.172 l 2.405 -7.51 c 0.359 -1.122 1.04 -2.092 1.971 -2.806 c 0.22 -0.17 0.498 -0.239 0.773 -0.193 c 0.273 0.046 0.517 0.203 0.669 0.435 c 1.45 2.191 1.993 2.056 2.753 1.647 l 7.124 -4.694 c 1.581 -1.039 3.712 -0.596 4.751 0.985 l 0.129 0.196 c 0.502 0.765 0.676 1.681 0.489 2.58 c -0.008 0.035 -0.016 0.069 -0.023 0.104 c 0.827 0.193 1.584 0.691 2.086 1.456 l 0.13 0.199 c 0.5 0.762 0.674 1.678 0.487 2.576 c -0.097 0.465 -0.283 0.896 -0.546 1.272 c 0.504 0.262 0.95 0.651 1.283 1.159 l 0.13 0.199 c 0.813 1.239 0.717 2.817 -0.127 3.941 c 0.487 0.262 0.918 0.645 1.242 1.138 l 0.13 0.199 c 0.5 0.762 0.674 1.678 0.487 2.576 c -0.187 0.899 -0.71 1.671 -1.474 2.172 l -8.162 5.355 c -2.113 1.387 -4.648 2.012 -7.166 1.776 l -1.683 1.104 C 49.64 72.549 49.45 72.602 49.262 72.602 z M 42.098 58.863 l 7.45 11.354 l 1.147 -0.753 c 0.2 -0.13 0.436 -0.182 0.676 -0.156 c 2.173 0.278 4.371 -0.229 6.189 -1.422 l 8.162 -5.355 c 0.659 -0.433 0.844 -1.321 0.411 -1.98 l -0.13 -0.199 c -0.432 -0.658 -1.321 -0.841 -1.979 -0.409 l 0 0 c -0.461 0.304 -1.081 0.174 -1.385 -0.287 c -0.303 -0.462 -0.175 -1.082 0.287 -1.385 c 0.002 -0.001 0.004 -0.003 0.007 -0.004 l 1.544 -1.014 c 0.317 -0.208 0.535 -0.53 0.612 -0.906 c 0.078 -0.376 0.007 -0.757 -0.201 -1.074 l -0.13 -0.199 c -0.207 -0.315 -0.529 -0.533 -0.905 -0.61 c -0.373 -0.08 -0.757 -0.007 -1.072 0.2 l -0.002 0.001 l 0 0 c -0.46 0.305 -1.081 0.177 -1.385 -0.287 c -0.303 -0.462 -0.175 -1.082 0.287 -1.385 l 0 0 c 0.002 -0.001 0.003 -0.002 0.005 -0.003 l 1.437 -0.943 c 0.659 -0.433 0.844 -1.321 0.411 -1.98 l -0.13 -0.199 c -0.207 -0.315 -0.529 -0.533 -0.905 -0.61 c -0.373 -0.081 -0.758 -0.008 -1.074 0.201 c -0.46 0.304 -1.08 0.176 -1.384 -0.286 c -0.304 -0.46 -0.177 -1.08 0.283 -1.384 l 0.003 -0.002 c 0 0 0.001 0 0.001 -0.001 l 0.111 -0.073 c 0.32 -0.21 0.538 -0.532 0.616 -0.908 s 0.007 -0.757 -0.201 -1.074 l -0.129 -0.196 c -0.435 -0.661 -1.322 -0.845 -1.981 -0.412 l -7.201 4.739 c -2.27 1.218 -3.77 -0.022 -4.739 -1.262 c -0.236 0.322 -0.42 0.683 -0.544 1.071 l -2.513 7.847 c -0.07 0.219 -0.212 0.406 -0.403 0.531 L 42.098 58.863 z" style="stroke: none; stroke-width: 1; stroke-dasharray: none; stroke-linecap: butt; stroke-linejoin: miter; stroke-miterlimit: 10; fill: rgb(0,0,0); fill-rule: nonzero; opacity: 1;" transform=" matrix(1 0 0 1 0 0) " stroke-linecap="round" />
	<path d="M 55.183 53.362 c -0.325 0 -0.645 -0.158 -0.837 -0.451 c -0.303 -0.461 -0.175 -1.081 0.287 -1.385 l 5.694 -3.742 c 0.461 -0.303 1.081 -0.175 1.385 0.287 c 0.303 0.461 0.175 1.081 -0.287 1.385 l -5.694 3.742 C 55.562 53.31 55.371 53.362 55.183 53.362 z" style="stroke: none; stroke-width: 1; stroke-dasharray: none; stroke-linecap: butt; stroke-linejoin: miter; stroke-miterlimit: 10; fill: rgb(0,0,0); fill-rule: nonzero; opacity: 1;" transform=" matrix(1 0 0 1 0 0) " stroke-linecap="round" />
	<path d="M 57.979 57.623 c -0.325 0 -0.645 -0.158 -0.837 -0.45 c -0.303 -0.462 -0.175 -1.082 0.286 -1.386 l 4.253 -2.796 c 0.464 -0.302 1.082 -0.175 1.386 0.286 c 0.303 0.462 0.175 1.082 -0.286 1.386 l -4.253 2.796 C 58.357 57.57 58.167 57.623 57.979 57.623 z" style="stroke: none; stroke-width: 1; stroke-dasharray: none; stroke-linecap: butt; stroke-linejoin: miter; stroke-miterlimit: 10; fill: rgb(0,0,0); fill-rule: nonzero; opacity: 1;" transform=" matrix(1 0 0 1 0 0) " stroke-linecap="round" />
	<path d="M 60.772 61.88 c -0.326 0 -0.645 -0.159 -0.837 -0.451 c -0.303 -0.462 -0.175 -1.082 0.287 -1.385 l 2.704 -1.774 c 0.462 -0.305 1.081 -0.174 1.385 0.287 c 0.303 0.462 0.175 1.082 -0.287 1.385 l -2.704 1.774 C 61.151 61.827 60.961 61.88 60.772 61.88 z" style="stroke: none; stroke-width: 1; stroke-dasharray: none; stroke-linecap: butt; stroke-linejoin: miter; stroke-miterlimit: 10; fill: rgb(0,0,0); fill-rule: nonzero; opacity: 1;" transform=" matrix(1 0 0 1 0 0) " stroke-linecap="round" />
	<path d="M 44.193 77.291 c -0.326 0 -0.645 -0.159 -0.837 -0.451 l -9.783 -14.908 c -0.146 -0.222 -0.197 -0.492 -0.143 -0.752 c 0.054 -0.26 0.208 -0.487 0.43 -0.633 l 5.694 -3.736 c 0.462 -0.304 1.083 -0.174 1.385 0.287 l 9.783 14.908 c 0.146 0.222 0.197 0.492 0.144 0.752 c -0.055 0.26 -0.209 0.487 -0.431 0.633 l -5.694 3.736 C 44.571 77.238 44.381 77.291 44.193 77.291 z M 35.793 61.67 l 8.686 13.236 l 4.021 -2.639 l -8.686 -13.236 L 35.793 61.67 z" style="stroke: none; stroke-width: 1; stroke-dasharray: none; stroke-linecap: butt; stroke-linejoin: miter; stroke-miterlimit: 10; fill: rgb(0,0,0); fill-rule: nonzero; opacity: 1;" transform=" matrix(1 0 0 1 0 0) " stroke-linecap="round" />
	<path d="M 28.399 90 H 12.895 c -4.173 0 -7.567 -3.395 -7.567 -7.567 v -8.556 c 0 -0.372 0.207 -0.714 0.536 -0.886 l 27.005 -14.134 c 0.455 -0.238 1.018 -0.092 1.3 0.337 l 11.936 18.188 c 0.146 0.222 0.196 0.492 0.143 0.752 s -0.209 0.487 -0.43 0.633 L 28.948 89.836 C 28.785 89.943 28.594 90 28.399 90 z M 7.328 74.482 v 7.95 c 0 3.07 2.498 5.567 5.567 5.567 h 15.206 l 15.783 -10.356 L 32.994 61.049 L 7.328 74.482 z" style="stroke: none; stroke-width: 1; stroke-dasharray: none; stroke-linecap: butt; stroke-linejoin: miter; stroke-miterlimit: 10; fill: rgb(0,0,0); fill-rule: nonzero; opacity: 1;" transform=" matrix(1 0 0 1 0 0) " stroke-linecap="round" />
</g>
</svg>