<svg xmlns="http://www.w3.org/2000/svg" version="1.1" xmlns:xlink="http://www.w3.org/1999/xlink" viewBox="0 0 10.059520251816418 10.271774999856431"><g transform="matrix(1,0,0,1,0.8470819032519588,8.341693096604473)"><g clip-path="url(#SvgjsClipPath1005)"><g clip-path="url(#SvgjsClipPath1000a27c2804-aa98-4e16-a55d-bfb2b6df73e6)"><path d=" M 4.3733201662093215 -0.8824545571796749 C 6.148249908580688 -0.8824545571796749 7.5871021376924315 -2.3313767958501774 7.5871021376924315 -4.119165723089744 C 7.5871021376924315 -5.90695465032931 6.148249908580688 -7.35591311205578 4.3733201662093215 -7.35591311205578 C 2.5983904238379556 -7.35591311205578 1.159538194726213 -5.906773535049477 1.159538194726213 -4.119165723089744 C 1.159538194726213 -2.331557911130011 2.5984266468939223 -0.8824545571796749 4.3733201662093215 -0.8824545571796749 Z M 4.3733201662093215 -0.772734920656351 C 6.208416404541481 -0.772734920656351 7.696024866984487 -2.2709929615535844 7.696024866984487 -4.119165723089744 C 7.696024866984487 -5.967338484625904 6.208416404541481 -7.465632748579104 4.3733201662093215 -7.465632748579104 C 2.538223927877163 -7.465632748579104 1.050615465434158 -5.967374707681871 1.050615465434158 -4.119165723089744 C 1.050615465434158 -2.2709567384976177 2.5381514817652295 -0.772734920656351 4.3733201662093215 -0.772734920656351 Z" fill="#173054" transform="matrix(1,0,0,1,0,0)" fill-rule="evenodd"></path></g><g clip-path="url(#SvgjsClipPath1000a27c2804-aa98-4e16-a55d-bfb2b6df73e6)"><path d=" M 3.8830773267551573 -0.772734920656351 C 5.658007069126523 -0.772734920656351 7.096859298238266 -2.221657159326854 7.096859298238266 -4.00944608656642 C 7.096859298238266 -5.797235013805987 5.658007069126524 -7.246193475532456 3.8830773267551573 -7.246193475532456 C 2.1081475843837905 -7.246193475532456 0.6693315783280149 -5.797053898526153 0.6693315783280149 -4.00944608656642 C 0.6693315783280149 -2.2218382746066876 2.1081838074397576 -0.772734920656351 3.8830773267551573 -0.772734920656351 Z M 3.8830773267551573 -0.6630152841330279 C 5.718173565087315 -0.6630152841330279 7.205818250586287 -2.1612733250302605 7.205818250586287 -4.00944608656642 C 7.205818250586287 -5.85761884810258 5.718173565087315 -7.35591311205578 3.8830773267551573 -7.35591311205578 C 2.0479810884229988 -7.35591311205578 0.5603726259799933 -5.857655071158547 0.5603726259799933 -4.00944608656642 C 0.5603726259799933 -2.1612371019742933 2.0480173114789655 -0.6629428380210936 3.8830773267551573 -0.6629428380210936 Z" fill="#173054" transform="matrix(1,0,0,1,0,0)" fill-rule="evenodd"></path></g><g clip-path="url(#SvgjsClipPath1000a27c2804-aa98-4e16-a55d-bfb2b6df73e6)"><path d=" M 4.482279118557344 -0.38869808129673444 C 6.25720886092871 -0.38869808129673444 7.696024866984487 -1.8378376583030374 7.696024866984487 -3.6254454702627696 C 7.696024866984487 -5.413053282222502 6.257172637872744 -6.862156636172839 4.482279118557344 -6.862156636172839 C 2.707385599241944 -6.862156636172839 1.2684971470742348 -5.4130170591665365 1.2684971470742348 -3.62544547026277 C 1.2684971470742348 -1.8378738813590045 2.7073493761859773 -0.38869808129673444 4.482279118557344 -0.38869808129673444 Z M 4.482279118557344 -0.2789784447734105 C 6.317339133833535 -0.2789784447734105 7.804983819332508 -1.777236485670644 7.804983819332508 -3.62544547026277 C 7.804983819332508 -5.4736544548548975 6.317339133833536 -6.971912495752131 4.482279118557344 -6.971912495752131 C 2.6472191032811514 -6.971912495752131 1.1595381947262127 -5.47361823179893 1.1595381947262127 -3.62544547026277 C 1.1595381947262127 -1.7772727087266107 2.6471828802251847 -0.2789784447734105 4.482279118557344 -0.2789784447734105 Z" fill="#173054" transform="matrix(1,0,0,1,0,0)" fill-rule="evenodd"></path></g><path d=" M 3.9080361999574356 -5.6834583950143855 L 4.457320245355064 -5.6834583950143855 L 4.457320245355064 -2.061152798338129 L 3.9080361999574356 -2.061152798338129 L 3.9080361999574356 -5.6834583950143855" fill="#173054" transform="matrix(1,0,0,1,0,0)" fill-rule="nonzero"></path></g><g><path d=" M 0.5145 -2.220446049250313e-16 L 0.5145 0.029999999999999805 Q 0.4665 0.03149999999999986 0.44175000000000003 0.04124999999999979 Q 0.417 0.05099999999999971 0.40950000000000003 0.07724999999999982 Q 0.402 0.10349999999999981 0.402 0.1589999999999998 L 0.402 0.9029999999999998 Q 0.402 0.9569999999999999 0.41025 0.9839999999999999 Q 0.4185 1.011 0.4425 1.0199999999999998 Q 0.4665 1.029 0.5145 1.0319999999999998 L 0.5145 1.0619999999999998 Q 0.47400000000000003 1.059 0.41250000000000003 1.05825 Q 0.35100000000000003 1.0574999999999999 0.28800000000000003 1.0574999999999999 Q 0.2145 1.0574999999999999 0.15225 1.05825 Q 0.09 1.059 0.051000000000000004 1.0619999999999998 L 0.051000000000000004 1.0319999999999998 Q 0.099 1.029 0.123 1.0199999999999998 Q 0.147 1.011 0.15525 0.9839999999999999 Q 0.1635 0.9569999999999999 0.1635 0.9029999999999998 L 0.1635 0.1589999999999998 Q 0.1635 0.10349999999999981 0.15525 0.07724999999999982 Q 0.147 0.05099999999999971 0.12225 0.04124999999999979 Q 0.0975 0.03149999999999986 0.051000000000000004 0.029999999999999805 L 0.051000000000000004 -2.220446049250313e-16 Q 0.09 0.0014999999999998348 0.15225 0.0029999999999998916 Q 0.2145 0.0044999999999997264 0.28800000000000003 0.0044999999999997264 Q 0.35100000000000003 0.0044999999999997264 0.41250000000000003 0.0029999999999998916 Q 0.47400000000000003 0.0014999999999998348 0.5145 -2.220446049250313e-16 M 1.60346484375 -2.220446049250313e-16 L 1.60346484375 0.029999999999999805 Q 1.55546484375 0.03599999999999981 1.53146484375 0.054749999999999854 Q 1.50746484375 0.07349999999999979 1.49921484375 0.11399999999999977 Q 1.49096484375 0.15449999999999986 1.49096484375 0.22799999999999987 L 1.49096484375 1.0649999999999997 Q 1.47296484375 1.0635 1.45421484375 1.0635 Q 1.4354648437500002 1.0635 1.41446484375 1.0649999999999997 L 0.76346484375 0.23999999999999977 L 0.76346484375 0.8159999999999998 Q 0.76346484375 0.8984999999999999 0.77246484375 0.9427499999999999 Q 0.78146484375 0.9869999999999999 0.81221484375 1.00575 Q 0.84296484375 1.0244999999999997 0.90896484375 1.0319999999999998 L 0.90896484375 1.0619999999999998 Q 0.88046484375 1.059 0.83396484375 1.05825 Q 0.78746484375 1.0574999999999999 0.74696484375 1.0574999999999999 Q 0.71246484375 1.0574999999999999 0.67646484375 1.05825 Q 0.64046484375 1.059 0.61646484375 1.0619999999999998 L 0.61646484375 1.0319999999999998 Q 0.66446484375 1.0244999999999997 0.68846484375 1.0064999999999997 Q 0.71246484375 0.9884999999999998 0.72071484375 0.9472499999999998 Q 0.72896484375 0.9059999999999998 0.72896484375 0.8339999999999999 L 0.72896484375 0.1589999999999998 Q 0.72896484375 0.10349999999999981 0.72071484375 0.07724999999999982 Q 0.71246484375 0.05099999999999971 0.68771484375 0.04124999999999979 Q 0.66296484375 0.03149999999999986 0.61646484375 0.029999999999999805 L 0.61646484375 -2.220446049250313e-16 Q 0.64046484375 0.0014999999999998348 0.67646484375 0.0029999999999998916 Q 0.71246484375 0.0044999999999997264 0.74696484375 0.0044999999999997264 Q 0.78296484375 0.0044999999999997264 0.81596484375 0.0029999999999998916 Q 0.84896484375 0.0014999999999998348 0.87596484375 -2.220446049250313e-16 L 1.45646484375 0.7154999999999998 L 1.45646484375 0.24599999999999977 Q 1.45646484375 0.16349999999999987 1.4474648437500002 0.11924999999999986 Q 1.43846484375 0.07499999999999984 1.40771484375 0.05549999999999988 Q 1.3769648437500002 0.03599999999999981 1.3109648437499999 0.029999999999999805 L 1.3109648437499999 -2.220446049250313e-16 Q 1.33946484375 0.0014999999999998348 1.38596484375 0.0029999999999998916 Q 1.43246484375 0.0044999999999997264 1.47296484375 0.0044999999999997264 Q 1.50896484375 0.0044999999999997264 1.54421484375 0.0029999999999998916 Q 1.57946484375 0.0014999999999998348 1.60346484375 -2.220446049250313e-16 M 2.5004421386718754 -2.220446049250313e-16 Q 2.494442138671875 0.06749999999999978 2.492192138671875 0.13049999999999984 Q 2.489942138671875 0.19349999999999978 2.489942138671875 0.22799999999999987 Q 2.489942138671875 0.2609999999999998 2.491442138671875 0.2909999999999998 Q 2.492942138671875 0.32099999999999984 2.494442138671875 0.34199999999999986 L 2.459942138671875 0.34199999999999986 Q 2.4404421386718753 0.22499999999999987 2.4059421386718753 0.15824999999999978 Q 2.3714421386718754 0.0914999999999998 2.3211921386718752 0.06299999999999983 Q 2.270942138671875 0.03449999999999975 2.201942138671875 0.03449999999999975 L 2.1524421386718755 0.03449999999999975 Q 2.108942138671875 0.03449999999999975 2.0864421386718752 0.041999999999999815 Q 2.0639421386718753 0.04949999999999988 2.0564421386718754 0.07199999999999984 Q 2.048942138671875 0.0944999999999998 2.048942138671875 0.1409999999999998 L 2.048942138671875 0.8939999999999998 Q 2.048942138671875 0.9524999999999998 2.060942138671875 0.9809999999999999 Q 2.072942138671875 1.0094999999999998 2.107442138671875 1.0184999999999997 Q 2.141942138671875 1.0274999999999999 2.209442138671875 1.029 L 2.209442138671875 1.0619999999999998 Q 2.162942138671875 1.0604999999999998 2.0894421386718753 1.059 Q 2.015942138671875 1.0574999999999999 1.9349421386718753 1.0574999999999999 Q 1.8704421386718753 1.0574999999999999 1.8089421386718751 1.059 Q 1.7474421386718753 1.0604999999999998 1.6979421386718752 1.0619999999999998 L 1.6979421386718752 1.0319999999999998 Q 1.7459421386718752 1.029 1.7699421386718752 1.0199999999999998 Q 1.7939421386718752 1.011 1.802192138671875 0.9839999999999999 Q 1.8104421386718752 0.9569999999999999 1.8104421386718752 0.9029999999999998 L 1.8104421386718752 0.1589999999999998 Q 1.8104421386718752 0.10349999999999981 1.802192138671875 0.07724999999999982 Q 1.7939421386718752 0.05099999999999971 1.7691921386718752 0.04124999999999979 Q 1.7444421386718751 0.03149999999999986 1.6979421386718752 0.029999999999999805 L 1.6979421386718752 -2.220446049250313e-16 Q 1.7789421386718751 0.0014999999999998348 1.8734421386718751 0.0029999999999998916 Q 1.9679421386718752 0.0044999999999997264 2.0519421386718752 0.0044999999999997264 Q 2.1359421386718753 0.0044999999999997264 2.186942138671875 0.0044999999999997264 Q 2.255942138671875 0.0044999999999997264 2.343692138671875 0.00374999999999992 Q 2.4314421386718754 0.0029999999999998916 2.5004421386718754 -2.220446049250313e-16 M 2.2769421386718753 0.5189999999999998 Q 2.2769421386718753 0.5189999999999998 2.2769421386718753 0.5339999999999998 Q 2.2769421386718753 0.5489999999999998 2.2769421386718753 0.5489999999999998 L 2.003942138671875 0.5489999999999998 Q 2.003942138671875 0.5489999999999998 2.003942138671875 0.5339999999999998 Q 2.003942138671875 0.5189999999999998 2.003942138671875 0.5189999999999998 L 2.2769421386718753 0.5189999999999998 M 2.3144421386718754 0.32099999999999984 Q 2.308442138671875 0.40649999999999986 2.3091921386718752 0.4514999999999998 Q 2.3099421386718753 0.49649999999999983 2.3099421386718753 0.5339999999999998 Q 2.3099421386718753 0.5714999999999999 2.3114421386718753 0.6164999999999998 Q 2.3129421386718754 0.6614999999999998 2.318942138671875 0.7469999999999999 L 2.284442138671875 0.7469999999999999 Q 2.2754421386718753 0.6944999999999999 2.255942138671875 0.6494999999999997 Q 2.236442138671875 0.6044999999999998 2.1989421386718755 0.5767499999999999 Q 2.161442138671875 0.5489999999999998 2.1014421386718753 0.5489999999999998 L 2.1014421386718753 0.5189999999999998 Q 2.161442138671875 0.5189999999999998 2.1974421386718754 0.48599999999999977 Q 2.233442138671875 0.45299999999999985 2.2521921386718753 0.4072499999999998 Q 2.270942138671875 0.3614999999999998 2.279942138671875 0.32099999999999984 L 2.3144421386718754 0.32099999999999984 M 3.058412109375 -2.220446049250313e-16 L 3.058412109375 0.029999999999999805 Q 3.007412109375 0.03149999999999986 2.981162109375 0.04124999999999979 Q 2.954912109375 0.05099999999999971 2.945912109375 0.07724999999999982 Q 2.936912109375 0.10349999999999981 2.936912109375 0.1589999999999998 L 2.936912109375 0.9209999999999998 Q 2.936912109375 0.9674999999999998 2.943662109375 0.9899999999999998 Q 2.950412109375 1.0124999999999997 2.970662109375 1.0199999999999998 Q 2.990912109375 1.0274999999999999 3.031412109375 1.0274999999999999 L 3.1049121093750003 1.0274999999999999 Q 3.1739121093750002 1.0274999999999999 3.230162109375 0.9854999999999998 Q 3.286412109375 0.9434999999999998 3.324662109375 0.8677499999999998 Q 3.3629121093750003 0.7919999999999998 3.377912109375 0.6929999999999998 L 3.412412109375 0.6929999999999998 Q 3.407912109375 0.7439999999999998 3.407912109375 0.8249999999999998 Q 3.407912109375 0.8594999999999998 3.4094121093750003 0.9254999999999998 Q 3.410912109375 0.9914999999999998 3.418412109375 1.0619999999999998 Q 3.341912109375 1.059 3.245912109375 1.05825 Q 3.149912109375 1.0574999999999999 3.074912109375 1.0574999999999999 Q 3.023912109375 1.0574999999999999 2.9399121093750002 1.0574999999999999 Q 2.855912109375 1.0574999999999999 2.761412109375 1.05825 Q 2.666912109375 1.059 2.585912109375 1.0619999999999998 L 2.585912109375 1.0319999999999998 Q 2.633912109375 1.029 2.657912109375 1.0199999999999998 Q 2.681912109375 1.011 2.690162109375 0.9839999999999999 Q 2.698412109375 0.9569999999999999 2.698412109375 0.9029999999999998 L 2.698412109375 0.1589999999999998 Q 2.698412109375 0.10349999999999981 2.690162109375 0.07724999999999982 Q 2.681912109375 0.05099999999999971 2.657162109375 0.04124999999999979 Q 2.632412109375 0.03149999999999986 2.585912109375 0.029999999999999805 L 2.585912109375 -2.220446049250313e-16 Q 2.623412109375 0.0014999999999998348 2.687162109375 0.0029999999999998916 Q 2.750912109375 0.0044999999999997264 2.8229121093750003 0.0044999999999997264 Q 2.888912109375 0.0044999999999997264 2.952662109375 0.0029999999999998916 Q 3.016412109375 0.0014999999999998348 3.058412109375 -2.220446049250313e-16 M 4.450439208984375 -2.220446049250313e-16 L 4.450439208984375 0.029999999999999805 Q 4.402439208984375 0.03599999999999981 4.377689208984375 0.054749999999999854 Q 4.352939208984375 0.07349999999999979 4.345439208984375 0.11399999999999977 Q 4.337939208984375 0.15449999999999986 4.337939208984375 0.22799999999999987 L 4.337939208984375 0.6254999999999998 Q 4.337939208984375 0.7229999999999999 4.324439208984375 0.8039999999999998 Q 4.310939208984375 0.8849999999999998 4.276439208984375 0.9434999999999998 Q 4.237439208984375 1.0079999999999998 4.162439208984375 1.0454999999999999 Q 4.0874392089843745 1.0829999999999997 3.971939208984375 1.0829999999999997 Q 3.902939208984375 1.0829999999999997 3.830939208984375 1.0672499999999998 Q 3.758939208984375 1.0514999999999999 3.701939208984375 1.0079999999999998 Q 3.653939208984375 0.9674999999999998 3.628439208984375 0.9164999999999999 Q 3.602939208984375 0.8654999999999998 3.593939208984375 0.7957499999999998 Q 3.584939208984375 0.7259999999999998 3.584939208984375 0.6299999999999999 L 3.584939208984375 0.1589999999999998 Q 3.584939208984375 0.10349999999999981 3.576689208984375 0.07724999999999982 Q 3.568439208984375 0.05099999999999971 3.544439208984375 0.04124999999999979 Q 3.520439208984375 0.03149999999999986 3.472439208984375 0.029999999999999805 L 3.472439208984375 -2.220446049250313e-16 Q 3.509939208984375 0.0014999999999998348 3.573689208984375 0.0029999999999998916 Q 3.6374392089843752 0.0044999999999997264 3.706439208984375 0.0044999999999997264 Q 3.775439208984375 0.0044999999999997264 3.839189208984375 0.0029999999999998916 Q 3.902939208984375 0.0014999999999998348 3.944939208984375 -2.220446049250313e-16 L 3.944939208984375 0.029999999999999805 Q 3.893939208984375 0.03149999999999986 3.867689208984375 0.04124999999999979 Q 3.841439208984375 0.05099999999999971 3.832439208984375 0.07724999999999982 Q 3.823439208984375 0.10349999999999981 3.823439208984375 0.1589999999999998 L 3.823439208984375 0.7244999999999998 Q 3.823439208984375 0.8249999999999998 3.841439208984375 0.8932499999999999 Q 3.859439208984375 0.9614999999999998 3.905189208984375 0.9959999999999998 Q 3.950939208984375 1.0304999999999997 4.030439208984375 1.0304999999999997 Q 4.135439208984375 1.0304999999999997 4.194689208984375 0.9809999999999999 Q 4.2539392089843755 0.9314999999999998 4.278689208984375 0.8437499999999998 Q 4.303439208984375 0.7559999999999998 4.303439208984375 0.6419999999999999 L 4.303439208984375 0.24599999999999977 Q 4.303439208984375 0.16349999999999987 4.292939208984375 0.11924999999999986 Q 4.282439208984375 0.07499999999999984 4.251689208984375 0.05549999999999988 Q 4.220939208984375 0.03599999999999981 4.157939208984375 0.029999999999999805 L 4.157939208984375 -2.220446049250313e-16 Q 4.186439208984375 0.0014999999999998348 4.232939208984375 0.0029999999999998916 Q 4.279439208984375 0.0044999999999997264 4.319939208984375 0.0044999999999997264 Q 4.355939208984375 0.0044999999999997264 4.391189208984375 0.0029999999999998916 Q 4.426439208984375 0.0014999999999998348 4.450439208984375 -2.220446049250313e-16 M 5.33097802734375 -2.220446049250313e-16 Q 5.32497802734375 0.06599999999999984 5.32272802734375 0.12749999999999984 Q 5.32047802734375 0.18899999999999983 5.32047802734375 0.22199999999999986 Q 5.32047802734375 0.2519999999999998 5.32197802734375 0.2789999999999998 Q 5.32347802734375 0.3059999999999998 5.32497802734375 0.32399999999999984 L 5.29047802734375 0.32399999999999984 Q 5.27547802734375 0.2144999999999998 5.24397802734375 0.15074999999999983 Q 5.21247802734375 0.08699999999999986 5.16222802734375 0.06074999999999986 Q 5.11197802734375 0.03449999999999975 5.04447802734375 0.03449999999999975 L 4.98297802734375 0.03449999999999975 Q 4.93797802734375 0.03449999999999975 4.91622802734375 0.041999999999999815 Q 4.89447802734375 0.04949999999999988 4.88697802734375 0.07124999999999981 Q 4.87947802734375 0.09299999999999986 4.87947802734375 0.1409999999999998 L 4.87947802734375 0.9209999999999998 Q 4.87947802734375 0.9674999999999998 4.88697802734375 0.9899999999999998 Q 4.89447802734375 1.0124999999999997 4.91622802734375 1.0199999999999998 Q 4.93797802734375 1.0274999999999999 4.98297802734375 1.0274999999999999 L 5.05647802734375 1.0274999999999999 Q 5.12397802734375 1.0274999999999999 5.17572802734375 0.9982499999999999 Q 5.22747802734375 0.9689999999999999 5.26422802734375 0.8984999999999999 Q 5.30097802734375 0.8279999999999998 5.32047802734375 0.7079999999999999 L 5.35497802734375 0.7079999999999999 Q 5.35047802734375 0.7559999999999998 5.35047802734375 0.8339999999999999 Q 5.35047802734375 0.8684999999999998 5.35197802734375 0.9314999999999998 Q 5.35347802734375 0.9944999999999998 5.36097802734375 1.0619999999999998 Q 5.28447802734375 1.059 5.18847802734375 1.05825 Q 5.09247802734375 1.0574999999999999 5.01747802734375 1.0574999999999999 Q 4.96647802734375 1.0574999999999999 4.88247802734375 1.0574999999999999 Q 4.79847802734375 1.0574999999999999 4.70397802734375 1.05825 Q 4.60947802734375 1.059 4.52847802734375 1.0619999999999998 L 4.52847802734375 1.0319999999999998 Q 4.57647802734375 1.029 4.60047802734375 1.0199999999999998 Q 4.62447802734375 1.011 4.63272802734375 0.9839999999999999 Q 4.64097802734375 0.9569999999999999 4.64097802734375 0.9029999999999998 L 4.64097802734375 0.1589999999999998 Q 4.64097802734375 0.10349999999999981 4.63272802734375 0.07724999999999982 Q 4.62447802734375 0.05099999999999971 4.59972802734375 0.04124999999999979 Q 4.57497802734375 0.03149999999999986 4.52847802734375 0.029999999999999805 L 4.52847802734375 -2.220446049250313e-16 Q 4.60947802734375 0.0014999999999998348 4.70397802734375 0.0029999999999998916 Q 4.79847802734375 0.0044999999999997264 4.88247802734375 0.0044999999999997264 Q 4.96647802734375 0.0044999999999997264 5.01747802734375 0.0044999999999997264 Q 5.08647802734375 0.0044999999999997264 5.17422802734375 0.00374999999999992 Q 5.2619780273437495 0.0029999999999998916 5.33097802734375 -2.220446049250313e-16 M 5.09697802734375 0.5129999999999998 Q 5.09697802734375 0.5129999999999998 5.09697802734375 0.5279999999999998 Q 5.09697802734375 0.5429999999999998 5.09697802734375 0.5429999999999998 L 4.83447802734375 0.5429999999999998 Q 4.83447802734375 0.5429999999999998 4.83447802734375 0.5279999999999998 Q 4.83447802734375 0.5129999999999998 4.83447802734375 0.5129999999999998 L 5.09697802734375 0.5129999999999998 M 5.14047802734375 0.31499999999999984 Q 5.13447802734375 0.40049999999999986 5.13522802734375 0.4454999999999998 Q 5.13597802734375 0.4904999999999998 5.13597802734375 0.5279999999999998 Q 5.13597802734375 0.5654999999999999 5.13747802734375 0.6104999999999998 Q 5.13897802734375 0.6554999999999997 5.14497802734375 0.7409999999999999 L 5.11047802734375 0.7409999999999999 Q 5.10297802734375 0.6884999999999999 5.08272802734375 0.6434999999999998 Q 5.06247802734375 0.5984999999999998 5.02497802734375 0.5707499999999999 Q 4.98747802734375 0.5429999999999998 4.92747802734375 0.5429999999999998 L 4.92747802734375 0.5129999999999998 Q 4.98747802734375 0.5129999999999998 5.02347802734375 0.47999999999999987 Q 5.05947802734375 0.44699999999999984 5.07897802734375 0.4012499999999998 Q 5.09847802734375 0.3554999999999998 5.10597802734375 0.31499999999999984 L 5.14047802734375 0.31499999999999984 M 6.467936279296875 -2.220446049250313e-16 L 6.467936279296875 0.029999999999999805 Q 6.419936279296875 0.03599999999999981 6.395936279296875 0.054749999999999854 Q 6.371936279296875 0.07349999999999979 6.363686279296875 0.11399999999999977 Q 6.355436279296875 0.15449999999999986 6.355436279296875 0.22799999999999987 L 6.355436279296875 1.0649999999999997 Q 6.337436279296875 1.0635 6.318686279296875 1.0635 Q 6.299936279296875 1.0635 6.278936279296875 1.0649999999999997 L 5.6279362792968755 0.23999999999999977 L 5.6279362792968755 0.8159999999999998 Q 5.6279362792968755 0.8984999999999999 5.636936279296875 0.9427499999999999 Q 5.645936279296875 0.9869999999999999 5.676686279296875 1.00575 Q 5.707436279296875 1.0244999999999997 5.773436279296875 1.0319999999999998 L 5.773436279296875 1.0619999999999998 Q 5.744936279296875 1.059 5.698436279296875 1.05825 Q 5.651936279296875 1.0574999999999999 5.611436279296875 1.0574999999999999 Q 5.576936279296875 1.0574999999999999 5.540936279296875 1.05825 Q 5.504936279296875 1.059 5.480936279296875 1.0619999999999998 L 5.480936279296875 1.0319999999999998 Q 5.528936279296875 1.0244999999999997 5.552936279296875 1.0064999999999997 Q 5.576936279296875 0.9884999999999998 5.585186279296875 0.9472499999999998 Q 5.593436279296875 0.9059999999999998 5.593436279296875 0.8339999999999999 L 5.593436279296875 0.1589999999999998 Q 5.593436279296875 0.10349999999999981 5.585186279296875 0.07724999999999982 Q 5.576936279296875 0.05099999999999971 5.552186279296875 0.04124999999999979 Q 5.527436279296875 0.03149999999999986 5.480936279296875 0.029999999999999805 L 5.480936279296875 -2.220446049250313e-16 Q 5.504936279296875 0.0014999999999998348 5.540936279296875 0.0029999999999998916 Q 5.576936279296875 0.0044999999999997264 5.611436279296875 0.0044999999999997264 Q 5.647436279296875 0.0044999999999997264 5.680436279296875 0.0029999999999998916 Q 5.713436279296875 0.0014999999999998348 5.740436279296875 -2.220446049250313e-16 L 6.320936279296875 0.7154999999999998 L 6.320936279296875 0.24599999999999977 Q 6.320936279296875 0.16349999999999987 6.311936279296875 0.11924999999999986 Q 6.302936279296875 0.07499999999999984 6.272186279296875 0.05549999999999988 Q 6.241436279296875 0.03599999999999981 6.175436279296875 0.029999999999999805 L 6.175436279296875 -2.220446049250313e-16 Q 6.203936279296875 0.0014999999999998348 6.250436279296875 0.0029999999999998916 Q 6.296936279296875 0.0044999999999997264 6.337436279296875 0.0044999999999997264 Q 6.373436279296875 0.0044999999999997264 6.408686279296875 0.0029999999999998916 Q 6.443936279296875 0.0014999999999998348 6.467936279296875 -2.220446049250313e-16 M 7.34691357421875 -2.220446049250313e-16 L 7.34691357421875 0.029999999999999805 L 6.83391357421875 1.0274999999999999 L 6.98991357421875 1.0274999999999999 Q 7.04091357421875 1.0274999999999999 7.09266357421875 1.011 Q 7.14441357421875 0.9944999999999998 7.18866357421875 0.9569999999999999 Q 7.23291357421875 0.9194999999999998 7.26441357421875 0.8572499999999998 Q 7.2959135742187495 0.7949999999999998 7.30641357421875 0.7019999999999998 L 7.34091357421875 0.7019999999999998 Q 7.33641357421875 0.7529999999999999 7.33641357421875 0.8339999999999999 Q 7.33641357421875 0.8684999999999998 7.33791357421875 0.9314999999999998 Q 7.33941357421875 0.9944999999999998 7.34691357421875 1.0619999999999998 Q 7.26441357421875 1.059 7.16016357421875 1.05825 Q 7.05591357421875 1.0574999999999999 6.97341357421875 1.0574999999999999 Q 6.87591357421875 1.0574999999999999 6.76941357421875 1.05825 Q 6.66291357421875 1.059 6.56991357421875 1.0619999999999998 L 6.56991357421875 1.0319999999999998 L 7.08441357421875 0.03449999999999975 L 6.92241357421875 0.03449999999999975 Q 6.84741357421875 0.03449999999999975 6.78441357421875 0.062249999999999805 Q 6.72141357421875 0.08999999999999986 6.67941357421875 0.15674999999999983 Q 6.63741357421875 0.2234999999999998 6.62241357421875 0.34199999999999986 L 6.58791357421875 0.34199999999999986 Q 6.59091357421875 0.32099999999999984 6.59166357421875 0.2909999999999998 Q 6.59241357421875 0.2609999999999998 6.59241357421875 0.22799999999999987 Q 6.59241357421875 0.19349999999999978 6.59016357421875 0.13049999999999984 Q 6.58791357421875 0.06749999999999978 6.58191357421875 -2.220446049250313e-16 Q 6.65691357421875 0.0029999999999998916 6.75066357421875 0.00374999999999992 Q 6.84441357421875 0.0044999999999997264 6.91941357421875 0.0044999999999997264 Q 7.01991357421875 0.0044999999999997264 7.1339135742187505 0.00374999999999992 Q 7.24791357421875 0.0029999999999998916 7.34691357421875 -2.220446049250313e-16 M 8.267898193359375 -2.220446049250313e-16 Q 8.261898193359375 0.06599999999999984 8.259648193359375 0.12749999999999984 Q 8.257398193359375 0.18899999999999983 8.257398193359375 0.22199999999999986 Q 8.257398193359375 0.2519999999999998 8.258898193359375 0.2789999999999998 Q 8.260398193359375 0.3059999999999998 8.261898193359375 0.32399999999999984 L 8.227398193359376 0.32399999999999984 Q 8.212398193359375 0.2144999999999998 8.180898193359376 0.15074999999999983 Q 8.149398193359374 0.08699999999999986 8.099148193359374 0.06074999999999986 Q 8.048898193359374 0.03449999999999975 7.981398193359375 0.03449999999999975 L 7.919898193359375 0.03449999999999975 Q 7.874898193359375 0.03449999999999975 7.853148193359375 0.041999999999999815 Q 7.831398193359375 0.04949999999999988 7.823898193359375 0.07124999999999981 Q 7.816398193359375 0.09299999999999986 7.816398193359375 0.1409999999999998 L 7.816398193359375 0.9209999999999998 Q 7.816398193359375 0.9674999999999998 7.823898193359375 0.9899999999999998 Q 7.831398193359375 1.0124999999999997 7.853148193359375 1.0199999999999998 Q 7.874898193359375 1.0274999999999999 7.919898193359375 1.0274999999999999 L 7.993398193359375 1.0274999999999999 Q 8.060898193359375 1.0274999999999999 8.112648193359375 0.9982499999999999 Q 8.164398193359375 0.9689999999999999 8.201148193359375 0.8984999999999999 Q 8.237898193359374 0.8279999999999998 8.257398193359375 0.7079999999999999 L 8.291898193359375 0.7079999999999999 Q 8.287398193359374 0.7559999999999998 8.287398193359374 0.8339999999999999 Q 8.287398193359374 0.8684999999999998 8.288898193359374 0.9314999999999998 Q 8.290398193359374 0.9944999999999998 8.297898193359375 1.0619999999999998 Q 8.221398193359375 1.059 8.125398193359375 1.05825 Q 8.029398193359375 1.0574999999999999 7.954398193359375 1.0574999999999999 Q 7.903398193359375 1.0574999999999999 7.819398193359375 1.0574999999999999 Q 7.735398193359375 1.0574999999999999 7.640898193359375 1.05825 Q 7.546398193359375 1.059 7.465398193359375 1.0619999999999998 L 7.465398193359375 1.0319999999999998 Q 7.513398193359375 1.029 7.537398193359375 1.0199999999999998 Q 7.561398193359375 1.011 7.569648193359375 0.9839999999999999 Q 7.577898193359375 0.9569999999999999 7.577898193359375 0.9029999999999998 L 7.577898193359375 0.1589999999999998 Q 7.577898193359375 0.10349999999999981 7.569648193359375 0.07724999999999982 Q 7.561398193359375 0.05099999999999971 7.536648193359375 0.04124999999999979 Q 7.511898193359375 0.03149999999999986 7.465398193359375 0.029999999999999805 L 7.465398193359375 -2.220446049250313e-16 Q 7.546398193359375 0.0014999999999998348 7.640898193359375 0.0029999999999998916 Q 7.735398193359375 0.0044999999999997264 7.819398193359375 0.0044999999999997264 Q 7.903398193359375 0.0044999999999997264 7.954398193359375 0.0044999999999997264 Q 8.023398193359375 0.0044999999999997264 8.111148193359375 0.00374999999999992 Q 8.198898193359375 0.0029999999999998916 8.267898193359375 -2.220446049250313e-16 M 8.033898193359375 0.5129999999999998 Q 8.033898193359375 0.5129999999999998 8.033898193359375 0.5279999999999998 Q 8.033898193359375 0.5429999999999998 8.033898193359375 0.5429999999999998 L 7.771398193359375 0.5429999999999998 Q 7.771398193359375 0.5429999999999998 7.771398193359375 0.5279999999999998 Q 7.771398193359375 0.5129999999999998 7.771398193359375 0.5129999999999998 L 8.033898193359375 0.5129999999999998 M 8.077398193359375 0.31499999999999984 Q 8.071398193359375 0.40049999999999986 8.072148193359375 0.4454999999999998 Q 8.072898193359375 0.4904999999999998 8.072898193359375 0.5279999999999998 Q 8.072898193359375 0.5654999999999999 8.074398193359375 0.6104999999999998 Q 8.075898193359375 0.6554999999999997 8.081898193359375 0.7409999999999999 L 8.047398193359374 0.7409999999999999 Q 8.039898193359376 0.6884999999999999 8.019648193359375 0.6434999999999998 Q 7.999398193359375 0.5984999999999998 7.961898193359375 0.5707499999999999 Q 7.924398193359375 0.5429999999999998 7.864398193359375 0.5429999999999998 L 7.864398193359375 0.5129999999999998 Q 7.924398193359375 0.5129999999999998 7.960398193359375 0.47999999999999987 Q 7.996398193359375 0.44699999999999984 8.015898193359375 0.4012499999999998 Q 8.035398193359375 0.3554999999999998 8.042898193359376 0.31499999999999984 L 8.077398193359375 0.31499999999999984" fill="#173054" fill-rule="nonzero"></path></g><g></g></g><defs><clipPath id="SvgjsClipPath1005"><path d=" M 0.5603726259799933 -7.4946111933525135 h 7.2446111933525135 v 7.2446111933525135 h -7.2446111933525135 Z"></path></clipPath><clipPath id="SvgjsClipPath1000a27c2804-aa98-4e16-a55d-bfb2b6df73e6"><path d=" M 0.5603726259799933 -7.465632748579104 L 7.804983819332508 -7.465632748579104 L 7.804983819332508 -0.2789784447734105 L 0.5603726259799933 -0.2789784447734105 Z"></path></clipPath></defs></svg>