<svg xmlns="http://www.w3.org/2000/svg" xmlns:xlink="http://www.w3.org/1999/xlink" version="1.1" width="256" height="256" viewBox="0 0 256 256" xml:space="preserve">

<defs>
</defs>
<g style="stroke: none; stroke-width: 0; stroke-dasharray: none; stroke-linecap: butt; stroke-linejoin: miter; stroke-miterlimit: 10; fill: none; fill-rule: nonzero; opacity: 1;" transform="translate(1.4065934065934016 1.4065934065934016) scale(2.81 2.81)" >
	<path d="M 49.809 61.202 H 8.999 c -4.142 0 -7.499 -3.358 -7.499 -7.499 V 20.335 c 0 -4.142 3.358 -7.499 7.499 -7.499 h 54.067 c 4.142 0 7.499 3.358 7.499 7.499 v 22.108 v 18.758 H 49.809 z" style="stroke: none; stroke-width: 1; stroke-dasharray: none; stroke-linecap: butt; stroke-linejoin: miter; stroke-miterlimit: 10; fill: rgb(14,147,229); fill-rule: nonzero; opacity: 1;" transform=" matrix(1 0 0 1 0 0) " stroke-linecap="round" />
	<path d="M 84.292 53.903 l -5.924 -5.71 c -1.255 -1.21 -3.191 -1.256 -4.303 -0.102 c -1.112 1.153 -0.994 3.087 0.26 4.296 l -1.994 -1.922 c -1.255 -1.21 -3.191 -1.256 -4.303 -0.102 c -1.112 1.153 -0.994 3.087 0.261 4.296 l 0.759 0.731 h 0 L 67.813 54.2 c -1.255 -1.21 -3.191 -1.256 -4.303 -0.102 s -0.994 3.087 0.261 4.296 l -6.811 -6.565 c -1.255 -1.21 -3.191 -1.256 -4.303 -0.102 c -1.112 1.153 -0.994 3.087 0.261 4.296 l 14.861 14.324 l -5.035 0.775 c -1.63 0.251 -2.645 1.808 -2.255 3.461 v 0 c 0.39 1.652 2.044 2.799 3.674 2.548 l 14.721 -2.265 c 2.429 -0.365 4.709 -1.462 6.48 -3.299 h 0 C 89.934 66.824 89.452 58.876 84.292 53.903 z" style="stroke: none; stroke-width: 1; stroke-dasharray: none; stroke-linecap: butt; stroke-linejoin: miter; stroke-miterlimit: 10; fill: rgb(244,212,175); fill-rule: nonzero; opacity: 1;" transform=" matrix(1 0 0 1 0 0) " stroke-linecap="round" />
	<path d="M 46.865 47.915 h -5.743 c -0.829 0 -1.5 -0.672 -1.5 -1.5 V 25.458 c 0 -0.829 0.671 -1.5 1.5 -1.5 h 5.743 c 4.564 0 8.278 3.714 8.278 8.278 v 7.401 C 55.144 44.201 51.43 47.915 46.865 47.915 z M 42.622 44.915 h 4.243 c 2.91 0 5.278 -2.368 5.278 -5.278 v -7.401 c 0 -2.911 -2.368 -5.278 -5.278 -5.278 h -4.243 V 44.915 z" style="stroke: none; stroke-width: 1; stroke-dasharray: none; stroke-linecap: butt; stroke-linejoin: miter; stroke-miterlimit: 10; fill: rgb(0,0,0); fill-rule: nonzero; opacity: 1;" transform=" matrix(1 0 0 1 0 0) " stroke-linecap="round" />
	<path d="M 24.943 23.958 c -4.423 0 -8.021 3.598 -8.021 8.021 v 14.437 c 0 0.828 0.671 1.5 1.5 1.5 s 1.5 -0.672 1.5 -1.5 v -6.778 h 10.042 v 6.778 c 0 0.828 0.671 1.5 1.5 1.5 s 1.5 -0.672 1.5 -1.5 V 31.979 C 32.964 27.556 29.366 23.958 24.943 23.958 z M 19.922 36.637 v -4.659 c 0 -2.769 2.252 -5.021 5.021 -5.021 s 5.021 2.252 5.021 5.021 v 4.659 H 19.922 z" style="stroke: none; stroke-width: 1; stroke-dasharray: none; stroke-linecap: butt; stroke-linejoin: miter; stroke-miterlimit: 10; fill: rgb(0,0,0); fill-rule: nonzero; opacity: 1;" transform=" matrix(1 0 0 1 0 0) " stroke-linecap="round" />
	<path d="M 49.809 62.702 H 9 c -4.962 0 -9 -4.037 -9 -9 V 20.334 c 0 -4.962 4.037 -8.999 9 -8.999 h 54.067 c 4.962 0 8.999 4.037 8.999 8.999 v 22.109 c 0 0.829 -0.672 1.5 -1.5 1.5 s -1.5 -0.671 -1.5 -1.5 V 20.334 c 0 -3.308 -2.691 -5.999 -5.999 -5.999 H 9 c -3.308 0 -6 2.691 -6 5.999 v 33.368 c 0 3.309 2.691 6 6 6 h 40.809 c 0.828 0 1.5 0.672 1.5 1.5 S 50.637 62.702 49.809 62.702 z" style="stroke: none; stroke-width: 1; stroke-dasharray: none; stroke-linecap: butt; stroke-linejoin: miter; stroke-miterlimit: 10; fill: rgb(0,0,0); fill-rule: nonzero; opacity: 1;" transform=" matrix(1 0 0 1 0 0) " stroke-linecap="round" />
	<path d="M 89.974 62.73 c -0.226 -3.723 -1.874 -7.241 -4.641 -9.907 l -5.924 -5.71 c -0.878 -0.847 -2.019 -1.329 -3.211 -1.357 c -1.241 -0.035 -2.382 0.429 -3.213 1.293 c -0.412 0.428 -0.712 0.924 -0.908 1.453 c -0.599 -0.286 -1.246 -0.459 -1.915 -0.475 c -1.23 0 -2.381 0.43 -3.213 1.294 c -0.666 0.691 -1.037 1.559 -1.142 2.464 c -1.24 -0.073 -2.477 0.338 -3.377 1.27 c -0.344 0.358 -0.594 0.77 -0.787 1.202 L 58 50.748 c -0.878 -0.847 -2.019 -1.329 -3.211 -1.357 c -1.215 -0.011 -2.381 0.43 -3.213 1.294 c -1.688 1.752 -1.554 4.631 0.3 6.418 l 12.681 12.222 l -2.042 0.314 c -1.19 0.184 -2.212 0.827 -2.876 1.813 c -0.673 0.999 -0.896 2.266 -0.61 3.476 c 0.515 2.175 2.538 3.737 4.691 3.737 c 0.224 0 0.447 -0.018 0.672 -0.052 l 14.715 -2.264 c 2.854 -0.43 5.392 -1.724 7.338 -3.742 C 88.949 70.007 90.202 66.5 89.974 62.73 z M 84.284 70.524 c -1.483 1.539 -3.428 2.527 -5.629 2.858 l -14.721 2.265 c -0.869 0.131 -1.774 -0.513 -1.986 -1.41 c -0.096 -0.403 -0.032 -0.798 0.178 -1.108 c 0.136 -0.201 0.393 -0.455 0.845 -0.525 l 5.035 -0.774 c 0.564 -0.087 1.03 -0.485 1.202 -1.029 c 0.173 -0.543 0.021 -1.138 -0.389 -1.533 L 53.958 54.942 c -0.651 -0.628 -0.753 -1.625 -0.222 -2.176 c 0.243 -0.253 0.601 -0.397 0.981 -0.376 c 0.438 0.01 0.864 0.194 1.2 0.518 l 6.812 6.565 l 3.984 3.841 c 0.291 0.28 0.666 0.42 1.041 0.42 c 0.393 0 0.785 -0.153 1.08 -0.459 c 0.575 -0.597 0.558 -1.546 -0.039 -2.121 l -3.984 -3.841 c -0.651 -0.628 -0.753 -1.624 -0.222 -2.175 c 0.53 -0.553 1.532 -0.487 2.183 0.141 l 0.474 0.457 c 0.001 0.001 0.002 0.002 0.003 0.003 l 3.508 3.381 c 0.147 0.142 0.316 0.246 0.495 0.316 c 0.07 0.027 0.146 0.025 0.219 0.042 c 0.109 0.025 0.216 0.062 0.327 0.062 c 0.005 0 0.011 -0.002 0.016 -0.002 c 0.013 0 0.024 -0.003 0.037 -0.004 c 0.181 -0.006 0.361 -0.042 0.53 -0.113 c 0.007 -0.003 0.012 -0.007 0.019 -0.01 c 0.174 -0.076 0.338 -0.185 0.478 -0.33 c 0.575 -0.597 0.558 -1.546 -0.039 -2.121 l -3.511 -3.385 c -0.648 -0.628 -0.749 -1.621 -0.218 -2.171 c 0.243 -0.252 0.602 -0.407 0.981 -0.376 c 0.438 0.01 0.864 0.194 1.2 0.518 l 1.993 1.921 c 0 0 0.001 0.001 0.001 0.001 c 0 0 0 0 0.001 0 l 1.446 1.393 c 0.596 0.574 1.547 0.559 2.121 -0.039 c 0.575 -0.597 0.558 -1.546 -0.039 -2.121 l -1.447 -1.395 c -0.65 -0.628 -0.752 -1.624 -0.221 -2.175 c 0.243 -0.252 0.59 -0.401 0.981 -0.376 c 0.438 0.01 0.864 0.194 1.2 0.518 l 5.924 5.71 c 2.225 2.144 3.548 4.959 3.729 7.929 C 87.156 65.834 86.199 68.537 84.284 70.524 z" style="stroke: none; stroke-width: 1; stroke-dasharray: none; stroke-linecap: butt; stroke-linejoin: miter; stroke-miterlimit: 10; fill: rgb(0,0,0); fill-rule: nonzero; opacity: 1;" transform=" matrix(1 0 0 1 0 0) " stroke-linecap="round" />
</g>
</svg>