<svg xmlns="http://www.w3.org/2000/svg" xmlns:xlink="http://www.w3.org/1999/xlink" version="1.1" width="256" height="256" viewBox="0 0 256 256" xml:space="preserve">

<defs>
</defs>
<g style="stroke: none; stroke-width: 0; stroke-dasharray: none; stroke-linecap: butt; stroke-linejoin: miter; stroke-miterlimit: 10; fill: none; fill-rule: nonzero; opacity: 1;" transform="translate(1.4065934065934016 1.4065934065934016) scale(2.81 2.81)" >
	<polygon points="0.75,52.92 37.84,40.49 46.92,46.62 77.22,25.04 89.25,26.8 89.25,80.01 0.75,80.01 " style="stroke: none; stroke-width: 1; stroke-dasharray: none; stroke-linecap: butt; stroke-linejoin: miter; stroke-miterlimit: 10; fill: rgb(9,214,180); fill-rule: nonzero; opacity: 1;" transform="  matrix(1 0 0 1 0 0) "/>
	<polygon points="0.75,61.2 39.05,52.01 52.07,54.7 67.83,42.29 79.64,49.58 89.25,46.62 89.25,83.26 0.75,83.26 " style="stroke: none; stroke-width: 1; stroke-dasharray: none; stroke-linecap: butt; stroke-linejoin: miter; stroke-miterlimit: 10; fill: rgb(255,209,91); fill-rule: nonzero; opacity: 1;" transform="  matrix(1 0 0 1 0 0) "/>
	<polygon points="0.75,75.03 33.29,57.46 46.62,67.58 70.86,62.79 89.25,70.73 89.25,86.54 0.75,86.54 " style="stroke: none; stroke-width: 1; stroke-dasharray: none; stroke-linecap: butt; stroke-linejoin: miter; stroke-miterlimit: 10; fill: rgb(242,112,112); fill-rule: nonzero; opacity: 1;" transform="  matrix(1 0 0 1 0 0) "/>
	<path d="M 89.246 87.294 H 0.754 C 0.338 87.294 0 86.956 0 86.54 V 3.46 c 0 -0.416 0.338 -0.754 0.754 -0.754 S 1.508 3.044 1.508 3.46 v 82.325 h 87.737 c 0.416 0 0.754 0.338 0.754 0.754 C 90 86.956 89.662 87.294 89.246 87.294 z" style="stroke: none; stroke-width: 1; stroke-dasharray: none; stroke-linecap: butt; stroke-linejoin: miter; stroke-miterlimit: 10; fill: rgb(201,198,195); fill-rule: nonzero; opacity: 1;" transform=" matrix(1 0 0 1 0 0) " stroke-linecap="round" />
	<path d="M 86.175 15.389 h -1.006 c -0.416 0 -0.754 -0.338 -0.754 -0.754 s 0.338 -0.754 0.754 -0.754 h 1.006 c 0.416 0 0.754 0.338 0.754 0.754 S 86.591 15.389 86.175 15.389 z M 79.136 15.389 H 78.13 c -0.416 0 -0.754 -0.338 -0.754 -0.754 s 0.338 -0.754 0.754 -0.754 h 1.006 c 0.416 0 0.754 0.338 0.754 0.754 S 79.552 15.389 79.136 15.389 z M 72.097 15.389 h -1.006 c -0.416 0 -0.754 -0.338 -0.754 -0.754 s 0.338 -0.754 0.754 -0.754 h 1.006 c 0.416 0 0.754 0.338 0.754 0.754 S 72.513 15.389 72.097 15.389 z M 65.058 15.389 h -1.006 c -0.416 0 -0.754 -0.338 -0.754 -0.754 s 0.338 -0.754 0.754 -0.754 h 1.006 c 0.416 0 0.754 0.338 0.754 0.754 S 65.474 15.389 65.058 15.389 z M 58.018 15.389 h -1.007 c -0.416 0 -0.754 -0.338 -0.754 -0.754 s 0.338 -0.754 0.754 -0.754 h 1.007 c 0.416 0 0.754 0.338 0.754 0.754 S 58.435 15.389 58.018 15.389 z M 50.978 15.389 h -1.006 c -0.416 0 -0.754 -0.338 -0.754 -0.754 s 0.338 -0.754 0.754 -0.754 h 1.006 c 0.416 0 0.754 0.338 0.754 0.754 S 51.395 15.389 50.978 15.389 z M 43.94 15.389 h -1.006 c -0.416 0 -0.754 -0.338 -0.754 -0.754 s 0.338 -0.754 0.754 -0.754 h 1.006 c 0.416 0 0.754 0.338 0.754 0.754 S 44.356 15.389 43.94 15.389 z M 36.901 15.389 h -1.006 c -0.416 0 -0.754 -0.338 -0.754 -0.754 s 0.338 -0.754 0.754 -0.754 h 1.006 c 0.416 0 0.754 0.338 0.754 0.754 S 37.317 15.389 36.901 15.389 z M 29.861 15.389 h -1.006 c -0.416 0 -0.754 -0.338 -0.754 -0.754 s 0.338 -0.754 0.754 -0.754 h 1.006 c 0.416 0 0.754 0.338 0.754 0.754 S 30.278 15.389 29.861 15.389 z M 22.822 15.389 h -1.006 c -0.416 0 -0.754 -0.338 -0.754 -0.754 s 0.338 -0.754 0.754 -0.754 h 1.006 c 0.416 0 0.754 0.338 0.754 0.754 S 23.239 15.389 22.822 15.389 z M 15.783 15.389 h -1.006 c -0.416 0 -0.754 -0.338 -0.754 -0.754 s 0.338 -0.754 0.754 -0.754 h 1.006 c 0.416 0 0.754 0.338 0.754 0.754 S 16.199 15.389 15.783 15.389 z M 8.744 15.389 H 7.738 c -0.416 0 -0.754 -0.338 -0.754 -0.754 s 0.338 -0.754 0.754 -0.754 h 1.006 c 0.416 0 0.754 0.338 0.754 0.754 S 9.16 15.389 8.744 15.389 z" style="stroke: none; stroke-width: 1; stroke-dasharray: none; stroke-linecap: butt; stroke-linejoin: miter; stroke-miterlimit: 10; fill: rgb(201,198,195); fill-rule: nonzero; opacity: 1;" transform=" matrix(1 0 0 1 0 0) " stroke-linecap="round" />
	<path d="M 50.978 27.375 h -1.006 c -0.416 0 -0.754 -0.338 -0.754 -0.754 s 0.338 -0.754 0.754 -0.754 h 1.006 c 0.416 0 0.754 0.338 0.754 0.754 S 51.395 27.375 50.978 27.375 z M 43.94 27.375 h -1.006 c -0.416 0 -0.754 -0.338 -0.754 -0.754 s 0.338 -0.754 0.754 -0.754 h 1.006 c 0.416 0 0.754 0.338 0.754 0.754 S 44.356 27.375 43.94 27.375 z M 36.901 27.375 h -1.006 c -0.416 0 -0.754 -0.338 -0.754 -0.754 s 0.338 -0.754 0.754 -0.754 h 1.006 c 0.416 0 0.754 0.338 0.754 0.754 S 37.317 27.375 36.901 27.375 z M 29.861 27.375 h -1.006 c -0.416 0 -0.754 -0.338 -0.754 -0.754 s 0.338 -0.754 0.754 -0.754 h 1.006 c 0.416 0 0.754 0.338 0.754 0.754 S 30.278 27.375 29.861 27.375 z M 22.822 27.375 h -1.006 c -0.416 0 -0.754 -0.338 -0.754 -0.754 s 0.338 -0.754 0.754 -0.754 h 1.006 c 0.416 0 0.754 0.338 0.754 0.754 S 23.239 27.375 22.822 27.375 z M 15.783 27.375 h -1.006 c -0.416 0 -0.754 -0.338 -0.754 -0.754 s 0.338 -0.754 0.754 -0.754 h 1.006 c 0.416 0 0.754 0.338 0.754 0.754 S 16.199 27.375 15.783 27.375 z M 8.744 27.375 H 7.738 c -0.416 0 -0.754 -0.338 -0.754 -0.754 s 0.338 -0.754 0.754 -0.754 h 1.006 c 0.416 0 0.754 0.338 0.754 0.754 S 9.16 27.375 8.744 27.375 z" style="stroke: none; stroke-width: 1; stroke-dasharray: none; stroke-linecap: butt; stroke-linejoin: miter; stroke-miterlimit: 10; fill: rgb(201,198,195); fill-rule: nonzero; opacity: 1;" transform=" matrix(1 0 0 1 0 0) " stroke-linecap="round" />
	<path d="M 22.822 39.601 h -1.006 c -0.416 0 -0.754 -0.338 -0.754 -0.754 s 0.338 -0.754 0.754 -0.754 h 1.006 c 0.416 0 0.754 0.338 0.754 0.754 S 23.239 39.601 22.822 39.601 z M 15.783 39.601 h -1.006 c -0.416 0 -0.754 -0.338 -0.754 -0.754 s 0.338 -0.754 0.754 -0.754 h 1.006 c 0.416 0 0.754 0.338 0.754 0.754 S 16.199 39.601 15.783 39.601 z M 8.744 39.601 H 7.738 c -0.416 0 -0.754 -0.338 -0.754 -0.754 s 0.338 -0.754 0.754 -0.754 h 1.006 c 0.416 0 0.754 0.338 0.754 0.754 S 9.16 39.601 8.744 39.601 z" style="stroke: none; stroke-width: 1; stroke-dasharray: none; stroke-linecap: butt; stroke-linejoin: miter; stroke-miterlimit: 10; fill: rgb(201,198,195); fill-rule: nonzero; opacity: 1;" transform=" matrix(1 0 0 1 0 0) " stroke-linecap="round" />
	<path d="M 86.175 4.214 h -1.006 c -0.416 0 -0.754 -0.338 -0.754 -0.754 s 0.338 -0.754 0.754 -0.754 h 1.006 c 0.416 0 0.754 0.338 0.754 0.754 S 86.591 4.214 86.175 4.214 z M 79.136 4.214 H 78.13 c -0.416 0 -0.754 -0.338 -0.754 -0.754 s 0.338 -0.754 0.754 -0.754 h 1.006 c 0.416 0 0.754 0.338 0.754 0.754 S 79.552 4.214 79.136 4.214 z M 72.097 4.214 h -1.006 c -0.416 0 -0.754 -0.338 -0.754 -0.754 s 0.338 -0.754 0.754 -0.754 h 1.006 c 0.416 0 0.754 0.338 0.754 0.754 S 72.513 4.214 72.097 4.214 z M 65.058 4.214 h -1.006 c -0.416 0 -0.754 -0.338 -0.754 -0.754 s 0.338 -0.754 0.754 -0.754 h 1.006 c 0.416 0 0.754 0.338 0.754 0.754 S 65.474 4.214 65.058 4.214 z M 58.018 4.214 h -1.007 c -0.416 0 -0.754 -0.338 -0.754 -0.754 s 0.338 -0.754 0.754 -0.754 h 1.007 c 0.416 0 0.754 0.338 0.754 0.754 S 58.435 4.214 58.018 4.214 z M 50.978 4.214 h -1.006 c -0.416 0 -0.754 -0.338 -0.754 -0.754 s 0.338 -0.754 0.754 -0.754 h 1.006 c 0.416 0 0.754 0.338 0.754 0.754 S 51.395 4.214 50.978 4.214 z M 43.94 4.214 h -1.006 c -0.416 0 -0.754 -0.338 -0.754 -0.754 s 0.338 -0.754 0.754 -0.754 h 1.006 c 0.416 0 0.754 0.338 0.754 0.754 S 44.356 4.214 43.94 4.214 z M 36.901 4.214 h -1.006 c -0.416 0 -0.754 -0.338 -0.754 -0.754 s 0.338 -0.754 0.754 -0.754 h 1.006 c 0.416 0 0.754 0.338 0.754 0.754 S 37.317 4.214 36.901 4.214 z M 29.861 4.214 h -1.006 c -0.416 0 -0.754 -0.338 -0.754 -0.754 s 0.338 -0.754 0.754 -0.754 h 1.006 c 0.416 0 0.754 0.338 0.754 0.754 S 30.278 4.214 29.861 4.214 z M 22.822 4.214 h -1.006 c -0.416 0 -0.754 -0.338 -0.754 -0.754 s 0.338 -0.754 0.754 -0.754 h 1.006 c 0.416 0 0.754 0.338 0.754 0.754 S 23.239 4.214 22.822 4.214 z M 15.783 4.214 h -1.006 c -0.416 0 -0.754 -0.338 -0.754 -0.754 s 0.338 -0.754 0.754 -0.754 h 1.006 c 0.416 0 0.754 0.338 0.754 0.754 S 16.199 4.214 15.783 4.214 z M 8.744 4.214 H 7.738 c -0.416 0 -0.754 -0.338 -0.754 -0.754 s 0.338 -0.754 0.754 -0.754 h 1.006 c 0.416 0 0.754 0.338 0.754 0.754 S 9.16 4.214 8.744 4.214 z" style="stroke: none; stroke-width: 1; stroke-dasharray: none; stroke-linecap: butt; stroke-linejoin: miter; stroke-miterlimit: 10; fill: rgb(201,198,195); fill-rule: nonzero; opacity: 1;" transform=" matrix(1 0 0 1 0 0) " stroke-linecap="round" />
</g>
</svg>