<svg xmlns="http://www.w3.org/2000/svg" xmlns:xlink="http://www.w3.org/1999/xlink" version="1.1" width="256" height="256" viewBox="0 0 256 256" xml:space="preserve">

<defs>
</defs>
<g style="stroke: none; stroke-width: 0; stroke-dasharray: none; stroke-linecap: butt; stroke-linejoin: miter; stroke-miterlimit: 10; fill: none; fill-rule: nonzero; opacity: 1;" transform="translate(1.4065934065934016 1.4065934065934016) scale(2.81 2.81)" >
	<path d="M 87.577 53.243 c -0.433 -2.114 -8.158 -7.661 -8.273 -13.269 c -0.154 -11.765 -1.998 -18.986 -5.464 -24.82 C 64.669 0.93 43.516 -1.932 27.759 6.296 l -0.088 -0.005 c -10.643 7.012 -16.96 17.036 -18.315 30.513 c 0.426 11.833 5.425 27.262 15.624 33.454 c 2.362 1.458 -0.856 10.678 -4.439 18.741 h 34.209 c 2.294 -5.478 6.115 -10.543 8.943 -9.687 c 11.269 1.393 14.052 0.56 16.391 -2.185 c 1.34 -1.852 0.997 -4.384 0 -7.181 c -0.369 -1.201 0.718 -4.146 1.768 -5.361 c -0.765 -2.813 -0.951 -7.556 0.886 -7.751 C 84.934 56.538 87.931 54.82 87.577 53.243 z" style="stroke: none; stroke-width: 1; stroke-dasharray: none; stroke-linecap: butt; stroke-linejoin: miter; stroke-miterlimit: 10; fill: rgb(255,211,189); fill-rule: nonzero; opacity: 1;" transform=" matrix(1 0 0 1 0 0) " stroke-linecap="round" />
	<path d="M 67.545 30.474 c -1.3 0 -2.465 -0.748 -3.062 -1.902 c -0.119 -0.23 -0.244 -0.459 -0.375 -0.685 c -0.131 -0.226 -0.266 -0.449 -0.406 -0.667 c -0.701 -1.094 -0.766 -2.477 -0.116 -3.602 c 0.944 -1.635 0.383 -3.725 -1.251 -4.668 l -4.526 -2.614 c -1.635 -0.944 -3.725 -0.383 -4.668 1.251 l -0.001 0.002 c -0.64 1.109 -1.846 1.762 -3.124 1.7 c -0.556 -0.027 -1.114 -0.028 -1.672 0 c -1.277 0.062 -2.48 -0.593 -3.119 -1.7 l -0.001 -0.001 c -0.944 -1.635 -3.034 -2.195 -4.668 -1.251 l -4.526 2.614 c -1.635 0.944 -2.195 3.034 -1.251 4.668 l 0.001 0.001 c 0.639 1.106 0.605 2.477 -0.087 3.551 c -0.303 0.47 -0.581 0.954 -0.836 1.449 c -0.585 1.139 -1.754 1.856 -3.034 1.856 h -0.002 c -1.887 0 -3.418 1.53 -3.418 3.417 v 5.227 c 0 1.887 1.53 3.418 3.418 3.418 c 1.3 0 2.465 0.748 3.062 1.902 c 0.119 0.23 0.244 0.459 0.375 0.685 c 0.131 0.226 0.266 0.449 0.406 0.667 c 0.701 1.094 0.766 2.477 0.116 3.602 c -0.944 1.635 -0.383 3.725 1.251 4.668 l 4.526 2.614 c 1.635 0.944 3.725 0.383 4.668 -1.251 l 0.001 -0.002 c 0.64 -1.109 1.846 -1.762 3.124 -1.7 c 0.556 0.027 1.114 0.028 1.672 0 c 1.277 -0.062 2.48 0.593 3.119 1.7 l 0.001 0.001 c 0.944 1.635 3.033 2.195 4.668 1.251 l 4.526 -2.614 c 1.635 -0.943 2.195 -3.033 1.251 -4.668 l -0.001 -0.001 c -0.639 -1.106 -0.605 -2.477 0.087 -3.551 c 0.303 -0.47 0.581 -0.954 0.836 -1.449 c 0.585 -1.139 1.754 -1.856 3.034 -1.856 h 0.002 c 1.887 0 3.418 -1.53 3.418 -3.417 v -5.227 C 70.963 32.004 69.433 30.474 67.545 30.474 z M 53.373 43.763 c -4.009 2.315 -9.135 0.941 -11.449 -3.068 c -2.315 -4.009 -0.941 -9.135 3.068 -11.449 c 4.009 -2.314 9.135 -0.941 11.449 3.068 C 58.756 36.323 57.382 41.449 53.373 43.763 z" style="stroke: none; stroke-width: 1; stroke-dasharray: none; stroke-linecap: butt; stroke-linejoin: miter; stroke-miterlimit: 10; fill: rgb(255,204,62); fill-rule: nonzero; opacity: 1;" transform=" matrix(1 0 0 1 0 0) " stroke-linecap="round" />
	<path d="M 39.557 12.093 c -0.556 -1.603 -2.306 -2.452 -3.909 -1.896 c -1.104 0.383 -2.313 0.091 -3.16 -0.713 c -0.169 -0.161 -0.342 -0.318 -0.52 -0.472 c -0.178 -0.154 -0.358 -0.303 -0.541 -0.447 c -0.917 -0.723 -1.38 -1.878 -1.159 -3.025 c 0.32 -1.666 -0.771 -3.276 -2.437 -3.596 l -4.614 -0.887 c -1.666 -0.32 -3.276 0.771 -3.596 2.437 l 0 0.002 c -0.217 1.13 -1.049 2.04 -2.153 2.364 c -0.48 0.141 -0.954 0.304 -1.42 0.492 c -1.066 0.428 -2.281 0.226 -3.15 -0.526 l -0.001 0 c -1.283 -1.11 -3.223 -0.97 -4.333 0.312 L 5.49 9.689 c -1.11 1.283 -0.97 3.223 0.312 4.333 l 0.001 0 c 0.869 0.751 1.243 1.925 0.972 3.041 c -0.118 0.489 -0.213 0.981 -0.283 1.476 c -0.162 1.14 -0.943 2.093 -2.03 2.47 l -0.001 0 c -1.603 0.556 -2.452 2.306 -1.896 3.909 l 1.539 4.439 c 0.556 1.603 2.306 2.452 3.909 1.896 c 1.104 -0.383 2.313 -0.091 3.16 0.713 c 0.169 0.16 0.342 0.318 0.52 0.471 c 0.178 0.154 0.358 0.303 0.541 0.447 c 0.917 0.723 1.38 1.878 1.159 3.025 c -0.32 1.666 0.771 3.276 2.437 3.596 l 4.614 0.887 c 1.666 0.32 3.276 -0.771 3.596 -2.437 l 0 -0.002 c 0.217 -1.13 1.049 -2.04 2.153 -2.363 c 0.41 -0.12 0.813 -0.266 1.212 -0.42 v -1.281 c 0 -1.887 1.53 -3.417 3.418 -3.417 h 0.002 c 1.28 0 2.449 -0.718 3.034 -1.856 c 0.254 -0.495 0.533 -0.978 0.836 -1.449 c 0.692 -1.074 0.726 -2.444 0.087 -3.551 l -0.001 -0.001 c -0.944 -1.634 -0.384 -3.724 1.251 -4.668 l 4.526 -2.614 c 0.132 -0.076 0.271 -0.127 0.408 -0.184 L 39.557 12.093 z M 27.525 25.656 c -2.723 3.146 -7.481 3.489 -10.627 0.766 c -3.146 -2.723 -3.489 -7.481 -0.766 -10.627 c 2.723 -3.146 7.481 -3.489 10.627 -0.766 C 29.906 17.752 30.249 22.51 27.525 25.656 z" style="stroke: none; stroke-width: 1; stroke-dasharray: none; stroke-linecap: butt; stroke-linejoin: miter; stroke-miterlimit: 10; fill: rgb(255,204,62); fill-rule: nonzero; opacity: 1;" transform=" matrix(1 0 0 1 0 0) " stroke-linecap="round" />
	<path d="M 56.109 58.134 c -0.384 0 -0.77 -0.05 -1.149 -0.151 c -1.141 -0.306 -2.093 -1.036 -2.684 -2.059 c -0.453 -0.785 -1.298 -1.244 -2.204 -1.202 c -0.579 0.027 -1.174 0.028 -1.769 0 c -0.874 -0.046 -1.741 0.406 -2.198 1.178 c -0.004 0.008 -0.009 0.017 -0.014 0.024 c -0.59 1.021 -1.542 1.752 -2.682 2.058 c -1.141 0.305 -2.331 0.147 -3.352 -0.441 l -4.526 -2.613 c -1.021 -0.59 -1.752 -1.543 -2.058 -2.682 c -0.305 -1.141 -0.148 -2.331 0.442 -3.352 c 0.453 -0.785 0.418 -1.768 -0.092 -2.562 c -0.148 -0.23 -0.292 -0.466 -0.43 -0.707 c -0.139 -0.24 -0.271 -0.482 -0.397 -0.726 c -0.435 -0.84 -1.268 -1.361 -2.174 -1.361 c -2.436 0 -4.417 -1.981 -4.417 -4.417 v -5.227 c 0 -2.436 1.981 -4.417 4.417 -4.417 c 0.908 0 1.73 -0.503 2.146 -1.313 c 0.268 -0.52 0.565 -1.036 0.885 -1.533 c 0.492 -0.763 0.515 -1.724 0.062 -2.509 c -0.591 -1.021 -0.748 -2.212 -0.442 -3.352 c 0.305 -1.14 1.036 -2.093 2.058 -2.683 l 4.526 -2.614 c 1.021 -0.59 2.211 -0.747 3.352 -0.441 c 1.139 0.305 2.092 1.036 2.682 2.058 c 0.455 0.786 1.309 1.248 2.205 1.202 c 0.579 -0.028 1.176 -0.028 1.769 0 c 0.935 0.045 1.757 -0.415 2.211 -1.201 c 0.59 -1.022 1.542 -1.753 2.683 -2.059 c 1.141 -0.306 2.331 -0.149 3.352 0.441 l 4.526 2.613 c 1.021 0.59 1.752 1.542 2.058 2.682 c 0.306 1.14 0.148 2.331 -0.441 3.352 c -0.454 0.785 -0.418 1.767 0.092 2.562 c 0.147 0.23 0.292 0.466 0.431 0.707 c 0.139 0.241 0.271 0.483 0.397 0.729 c 0.434 0.836 1.267 1.357 2.173 1.357 c 2.436 0 4.417 1.982 4.417 4.418 v 5.227 c 0 2.436 -1.981 4.417 -4.417 4.417 c -0.907 0 -1.729 0.503 -2.146 1.314 c -0.265 0.515 -0.562 1.031 -0.883 1.531 c -0.493 0.765 -0.517 1.726 -0.063 2.511 c 0.591 1.021 0.748 2.213 0.442 3.352 c -0.305 1.14 -1.036 2.093 -2.058 2.683 l -4.526 2.613 C 57.631 57.933 56.875 58.134 56.109 58.134 z M 50.194 52.719 c 1.574 0 3.02 0.83 3.814 2.204 c 0.323 0.56 0.845 0.96 1.468 1.127 c 0.626 0.168 1.276 0.081 1.835 -0.242 l 4.526 -2.613 c 0.559 -0.322 0.959 -0.844 1.126 -1.467 c 0.167 -0.624 0.081 -1.275 -0.242 -1.835 c -0.83 -1.437 -0.787 -3.197 0.112 -4.594 c 0.286 -0.445 0.551 -0.904 0.786 -1.363 c 0.762 -1.48 2.266 -2.4 3.924 -2.4 c 1.334 0 2.419 -1.084 2.419 -2.417 v -5.227 c 0 -1.333 -1.084 -2.418 -2.417 -2.418 c -1.656 0 -3.17 -0.936 -3.95 -2.441 c -0.112 -0.219 -0.229 -0.433 -0.353 -0.645 c -0.123 -0.213 -0.25 -0.422 -0.382 -0.627 c -0.916 -1.429 -0.97 -3.207 -0.141 -4.643 c 0.323 -0.559 0.409 -1.21 0.242 -1.834 c -0.167 -0.624 -0.567 -1.145 -1.126 -1.467 l -4.526 -2.614 c -0.559 -0.323 -1.209 -0.41 -1.835 -0.242 c -0.623 0.167 -1.145 0.567 -1.467 1.125 c -0.832 1.439 -2.388 2.277 -4.041 2.201 c -0.531 -0.026 -1.06 -0.026 -1.573 0 c -1.648 0.085 -3.205 -0.761 -4.035 -2.199 c -0.323 -0.56 -0.845 -0.96 -1.469 -1.127 c -0.625 -0.166 -1.275 -0.082 -1.833 0.242 l -4.527 2.614 c -0.559 0.323 -0.959 0.844 -1.126 1.468 c -0.167 0.624 -0.082 1.275 0.241 1.834 c 0.831 1.437 0.789 3.197 -0.111 4.593 c -0.285 0.442 -0.549 0.901 -0.787 1.364 c -0.76 1.48 -2.264 2.399 -3.924 2.399 c -1.334 0 -2.419 1.084 -2.419 2.417 v 5.227 c 0 1.333 1.084 2.417 2.417 2.417 c 1.657 0 3.171 0.936 3.95 2.442 c 0.112 0.216 0.229 0.431 0.352 0.645 c 0.123 0.212 0.25 0.421 0.381 0.625 c 0.916 1.43 0.97 3.208 0.141 4.643 c -0.323 0.56 -0.409 1.211 -0.241 1.834 c 0.167 0.624 0.567 1.145 1.126 1.468 l 4.526 2.613 c 0.558 0.323 1.208 0.408 1.835 0.242 c 0.615 -0.165 1.13 -0.556 1.454 -1.104 c 0.004 -0.008 0.009 -0.017 0.014 -0.024 c 0.83 -1.437 2.364 -2.267 4.039 -2.198 c 0.53 0.025 1.061 0.025 1.574 0 C 50.048 52.721 50.121 52.719 50.194 52.719 z" style="stroke: none; stroke-width: 1; stroke-dasharray: none; stroke-linecap: butt; stroke-linejoin: miter; stroke-miterlimit: 10; fill: rgb(0,0,0); fill-rule: nonzero; opacity: 1;" transform=" matrix(1 0 0 1 0 0) " stroke-linecap="round" />
	<path d="M 21.816 29.26 c -2.049 0 -4.008 -0.728 -5.572 -2.082 c -1.724 -1.492 -2.763 -3.565 -2.927 -5.839 c -0.164 -2.273 0.567 -4.475 2.06 -6.198 c 3.081 -3.558 8.48 -3.947 12.037 -0.867 c 1.724 1.492 2.763 3.565 2.927 5.839 c 0.164 2.274 -0.568 4.475 -2.06 6.199 c -1.492 1.724 -3.565 2.763 -5.839 2.927 C 22.233 29.253 22.024 29.26 21.816 29.26 z M 21.834 14.195 c -1.832 0 -3.654 0.764 -4.945 2.255 c -1.142 1.319 -1.702 3.005 -1.577 4.746 c 0.125 1.741 0.921 3.328 2.241 4.471 c 1.32 1.142 3.004 1.697 4.746 1.577 c 1.741 -0.125 3.328 -0.921 4.47 -2.241 c 0 0 0 0 0 0 c 1.142 -1.319 1.702 -3.004 1.577 -4.745 c -0.125 -1.741 -0.921 -3.329 -2.241 -4.471 C 24.872 14.718 23.349 14.195 21.834 14.195 z" style="stroke: none; stroke-width: 1; stroke-dasharray: none; stroke-linecap: butt; stroke-linejoin: miter; stroke-miterlimit: 10; fill: rgb(0,0,0); fill-rule: nonzero; opacity: 1;" transform=" matrix(1 0 0 1 0 0) " stroke-linecap="round" />
	<path d="M 49.197 45.89 c -0.814 0 -1.635 -0.107 -2.443 -0.324 c -2.42 -0.648 -4.443 -2.201 -5.696 -4.371 c -1.253 -2.17 -1.586 -4.698 -0.937 -7.119 c 0.648 -2.42 2.201 -4.443 4.371 -5.696 c 4.481 -2.586 10.228 -1.045 12.815 3.434 c 1.253 2.17 1.586 4.698 0.937 7.119 c -0.648 2.42 -2.201 4.443 -4.371 5.696 l 0 0 C 52.428 45.464 50.823 45.89 49.197 45.89 z M 49.17 29.125 c -1.251 0 -2.519 0.318 -3.678 0.987 c -1.707 0.985 -2.929 2.577 -3.439 4.481 c -0.51 1.905 -0.249 3.894 0.738 5.601 c 0.985 1.707 2.577 2.929 4.482 3.439 c 1.905 0.51 3.893 0.248 5.601 -0.738 l 0 0 c 1.708 -0.985 2.929 -2.577 3.439 -4.482 c 0.511 -1.904 0.249 -3.893 -0.737 -5.601 C 54.21 30.449 51.724 29.125 49.17 29.125 z" style="stroke: none; stroke-width: 1; stroke-dasharray: none; stroke-linecap: butt; stroke-linejoin: miter; stroke-miterlimit: 10; fill: rgb(0,0,0); fill-rule: nonzero; opacity: 1;" transform=" matrix(1 0 0 1 0 0) " stroke-linecap="round" />
	<path d="M 20.444 41.395 c -0.062 0 -0.126 -0.006 -0.19 -0.018 l -4.614 -0.887 c -1.067 -0.205 -1.992 -0.814 -2.602 -1.714 c -0.61 -0.9 -0.833 -1.985 -0.628 -3.053 c 0.146 -0.763 -0.158 -1.548 -0.795 -2.05 c -0.195 -0.153 -0.388 -0.312 -0.577 -0.476 s -0.375 -0.333 -0.555 -0.503 c -0.589 -0.56 -1.411 -0.749 -2.144 -0.493 c -2.122 0.736 -4.446 -0.392 -5.181 -2.513 l -1.54 -4.439 c -0.356 -1.028 -0.291 -2.133 0.184 -3.111 c 0.475 -0.979 1.302 -1.714 2.33 -2.07 c 0.735 -0.255 1.259 -0.893 1.369 -1.666 c 0.074 -0.521 0.175 -1.05 0.301 -1.571 c 0.185 -0.757 -0.066 -1.541 -0.653 -2.05 c -0.823 -0.711 -1.319 -1.701 -1.398 -2.786 c -0.078 -1.085 0.271 -2.135 0.982 -2.958 l 3.075 -3.552 c 0.711 -0.823 1.7 -1.319 2.785 -1.397 c 1.08 -0.081 2.135 0.271 2.957 0.982 c 0.587 0.508 1.4 0.645 2.124 0.355 c 0.485 -0.196 0.994 -0.373 1.511 -0.524 c 0.75 -0.22 1.306 -0.83 1.453 -1.592 c 0.205 -1.069 0.814 -1.993 1.714 -2.603 c 0.9 -0.612 1.984 -0.835 3.053 -0.628 l 4.614 0.887 c 1.067 0.205 1.992 0.814 2.602 1.714 c 0.61 0.9 0.833 1.985 0.627 3.053 c -0.146 0.763 0.158 1.549 0.796 2.051 c 0.194 0.152 0.388 0.312 0.578 0.477 c 0.188 0.163 0.373 0.331 0.553 0.502 c 0.589 0.559 1.411 0.745 2.144 0.493 c 0.521 -0.182 1.091 0.095 1.272 0.617 s -0.095 1.091 -0.617 1.272 c -1.443 0.5 -3.043 0.142 -4.177 -0.933 c -0.158 -0.15 -0.32 -0.296 -0.486 -0.44 c -0.167 -0.145 -0.333 -0.283 -0.504 -0.416 c -1.229 -0.968 -1.812 -2.501 -1.524 -4.001 c 0.104 -0.543 -0.009 -1.095 -0.319 -1.553 c -0.311 -0.458 -0.781 -0.768 -1.324 -0.872 l -4.614 -0.887 c -0.544 -0.105 -1.095 0.009 -1.553 0.32 c -0.458 0.311 -0.768 0.781 -0.872 1.324 c -0.289 1.503 -1.382 2.705 -2.854 3.136 c -0.453 0.133 -0.9 0.288 -1.327 0.46 C 15 7.849 13.4 7.582 12.244 6.581 c -0.418 -0.363 -0.954 -0.545 -1.506 -0.5 c -0.552 0.04 -1.055 0.292 -1.416 0.71 l -3.075 3.553 c -0.362 0.419 -0.54 0.953 -0.5 1.505 c 0.04 0.552 0.292 1.055 0.711 1.417 c 1.158 1.001 1.652 2.547 1.29 4.035 c -0.11 0.457 -0.2 0.922 -0.265 1.38 c -0.216 1.518 -1.248 2.773 -2.693 3.274 c -1.08 0.375 -1.654 1.558 -1.28 2.637 l 1.54 4.439 c 0.374 1.08 1.56 1.655 2.636 1.279 c 1.444 -0.499 3.044 -0.142 4.176 0.933 c 0.158 0.15 0.32 0.297 0.486 0.44 c 0.166 0.144 0.334 0.283 0.505 0.417 c 1.228 0.967 1.811 2.499 1.522 4 c -0.104 0.543 0.009 1.095 0.32 1.553 c 0.31 0.458 0.78 0.768 1.323 0.872 l 4.614 0.887 c 0.542 0.104 0.897 0.628 0.793 1.171 C 21.333 41.062 20.914 41.395 20.444 41.395 z" style="stroke: none; stroke-width: 1; stroke-dasharray: none; stroke-linecap: butt; stroke-linejoin: miter; stroke-miterlimit: 10; fill: rgb(0,0,0); fill-rule: nonzero; opacity: 1;" transform=" matrix(1 0 0 1 0 0) " stroke-linecap="round" />
	<path d="M 54.751 89.999 h -34.21 c -0.338 0 -0.654 -0.171 -0.838 -0.455 s -0.213 -0.642 -0.076 -0.951 c 5.854 -13.175 5.47 -17.088 4.828 -17.483 C 17.26 66.742 11.77 57.429 9.399 45.562 c -0.108 -0.541 0.243 -1.068 0.785 -1.176 c 0.541 -0.111 1.068 0.243 1.176 0.785 c 2.261 11.319 7.414 20.152 14.138 24.234 c 0.919 0.566 3.646 2.25 -3.427 18.595 h 32.02 c 2.467 -5.599 6.367 -10.602 9.802 -9.671 c 11.304 1.393 13.466 0.456 15.429 -1.851 c 0.911 -1.264 0.869 -3.253 -0.181 -6.196 c -0.483 -1.572 0.577 -4.421 1.623 -5.922 c -0.518 -2.226 -0.832 -5.861 0.324 -7.553 c 0.489 -0.717 1.109 -0.923 1.543 -0.969 c 1.425 -0.191 3.22 -1.111 3.815 -1.966 c 0.118 -0.17 0.175 -0.32 0.154 -0.411 c -0.103 -0.498 -1.32 -1.844 -2.299 -2.926 c -2.497 -2.761 -5.917 -6.542 -5.999 -10.542 c -0.145 -11.017 -1.736 -18.291 -5.323 -24.33 C 66.53 5.662 52.807 0.751 38.854 3.477 c -0.544 0.104 -1.067 -0.248 -1.173 -0.79 c -0.106 -0.542 0.248 -1.067 0.79 -1.173 C 53.448 -1.409 67.664 3.73 74.681 14.611 c 3.798 6.393 5.474 13.965 5.623 25.349 c 0.066 3.246 3.197 6.706 5.482 9.234 c 1.488 1.645 2.563 2.834 2.77 3.849 c 0.099 0.438 0.102 1.155 -0.469 1.974 c -1.053 1.511 -3.474 2.574 -5.217 2.808 c -0.562 0.221 -0.907 3.363 -0.055 6.498 c 0.088 0.321 0.01 0.665 -0.208 0.917 c -0.952 1.102 -1.792 3.685 -1.568 4.413 c 0.798 2.236 1.668 5.555 -0.146 8.06 c -2.871 3.377 -6.584 3.919 -17.324 2.592 c -0.057 -0.007 -0.112 -0.019 -0.166 -0.035 c -1.931 -0.576 -5.385 3.511 -7.731 9.116 C 55.517 89.757 55.154 89.999 54.751 89.999 z" style="stroke: none; stroke-width: 1; stroke-dasharray: none; stroke-linecap: butt; stroke-linejoin: miter; stroke-miterlimit: 10; fill: rgb(0,0,0); fill-rule: nonzero; opacity: 1;" transform=" matrix(1 0 0 1 0 0) " stroke-linecap="round" />
</g>
</svg>